<svg width="30" height="30" viewBox="0 0 30 30" fill="none" xmlns="http://www.w3.org/2000/svg">
<path d="M23.1054 0.551466C23.5502 0.809603 23.824 1.28501 23.824 1.7993V7.57024C25.5333 7.57024 27.0705 8.31519 28.1251 9.49352C29.0381 10.5136 29.5949 11.8641 29.5949 13.3412C29.5949 14.8183 29.0381 16.1688 28.1251 17.1888C27.0705 18.3671 25.5333 19.1121 23.824 19.1121V24.883C23.824 25.3973 23.5502 25.8727 23.1054 26.1309C22.6606 26.389 22.112 26.3908 21.6654 26.1357L12.2821 20.7738V27.7685C12.2821 28.5653 11.6362 29.2112 10.8394 29.2112H5.06844C4.27164 29.2112 3.6257 28.5653 3.6257 27.7685V20.5548C2.0321 20.5548 0.740234 19.263 0.740234 17.6694V9.01297C0.740234 7.41937 2.0321 6.1275 3.6257 6.1275H11.899L21.6654 0.546657C22.112 0.291497 22.6606 0.293329 23.1054 0.551466ZM12.2821 17.6694C12.5332 17.6694 12.7799 17.7349 12.9979 17.8595L20.9385 22.397V4.28539L12.9979 8.82288C12.7799 8.94745 12.5332 9.01297 12.2821 9.01297H3.6257V17.6694H12.2821ZM6.51117 20.5548V26.3258H9.39664V20.5548H6.51117ZM23.824 16.2266C24.6784 16.2266 25.4446 15.8571 25.975 15.2645C26.4328 14.753 26.7094 14.0811 26.7094 13.3412C26.7094 12.6012 26.4328 11.9293 25.975 11.4179C25.4446 10.8253 24.6784 10.4557 23.824 10.4557V16.2266Z" fill="#142251"/>
</svg>
