<svg width="30" height="28" viewBox="0 0 30 28" fill="none" xmlns="http://www.w3.org/2000/svg">
<path d="M15.1676 0.302368C15.7141 0.302368 16.2136 0.611117 16.458 1.09989L20.1787 8.54124L28.3599 9.73123C28.9033 9.81027 29.3547 10.1909 29.5243 10.7131C29.694 11.2353 29.5525 11.8086 29.1594 12.1919L23.205 17.9974L24.5445 26.1829C24.633 26.7238 24.4073 27.2682 23.962 27.5879C23.5167 27.9075 22.9287 27.9472 22.4444 27.6903L15.1676 23.8291L7.89078 27.6903C7.40655 27.9472 6.81856 27.9075 6.37324 27.5879C5.92792 27.2682 5.70222 26.7238 5.79075 26.1829L7.13018 17.9974L1.17584 12.1919C0.782685 11.8086 0.641209 11.2353 0.810884 10.7131C0.980559 10.1909 1.43196 9.81027 1.97534 9.73123L10.1565 8.54124L13.8772 1.09989C14.1216 0.611117 14.6211 0.302368 15.1676 0.302368ZM15.1676 4.97115L12.4003 10.5057C12.1892 10.928 11.7848 11.2202 11.3176 11.2882L5.28256 12.166L9.68248 16.4559C10.0196 16.7847 10.1751 17.2572 10.0991 17.7219L9.10814 23.7778L14.4914 20.9214C14.9143 20.697 15.4209 20.697 15.8438 20.9214L21.2271 23.7778L20.2361 17.7219C20.1601 17.2572 20.3156 16.7847 20.6527 16.4559L25.0527 12.166L19.0176 11.2882C18.5504 11.2202 18.146 10.928 17.9349 10.5057L15.1676 4.97115Z" fill="#142251"/>
</svg>
