<svg width="27" height="30" viewBox="0 0 27 30" fill="none" xmlns="http://www.w3.org/2000/svg">
<path d="M13.3225 3.24203C10.1353 3.24203 7.55156 5.82577 7.55156 9.01297C7.55156 12.2002 10.1353 14.7839 13.3225 14.7839C16.5097 14.7839 19.0934 12.2002 19.0934 9.01297C19.0934 5.82577 16.5097 3.24203 13.3225 3.24203ZM4.66609 9.01297C4.66609 4.23217 8.54169 0.356567 13.3225 0.356567C18.1033 0.356567 21.9789 4.23217 21.9789 9.01297C21.9789 13.7938 18.1033 17.6694 13.3225 17.6694C8.54169 17.6694 4.66609 13.7938 4.66609 9.01297ZM7.55156 23.4403C5.16116 23.4403 3.22336 25.3781 3.22336 27.7685C3.22336 28.5653 2.57742 29.2112 1.78062 29.2112C0.983824 29.2112 0.337891 28.5653 0.337891 27.7685C0.337891 23.7845 3.56756 20.5548 7.55156 20.5548H19.0934C23.0774 20.5548 26.3071 23.7845 26.3071 27.7685C26.3071 28.5653 25.6612 29.2112 24.8644 29.2112C24.0676 29.2112 23.4216 28.5653 23.4216 27.7685C23.4216 25.3781 21.4838 23.4403 19.0934 23.4403H7.55156Z" fill="#142251"/>
</svg>
