<svg width="30" height="27" viewBox="0 0 30 27" fill="none" xmlns="http://www.w3.org/2000/svg">
<path fill-rule="evenodd" clip-rule="evenodd" d="M10.2866 0.356567C7.89624 0.356567 5.95844 2.29437 5.95844 4.68477V6.12753L3.07297 6.12755C1.47938 6.12755 0.1875 7.41939 0.1875 9.01297V23.4403C0.1875 25.0339 1.47937 26.3258 3.07297 26.3258H26.1567C27.7503 26.3258 29.0422 25.0339 29.0422 23.4403V9.01297C29.0422 7.41937 27.7503 6.1275 26.1567 6.1275H23.2712V4.68477C23.2712 2.29437 21.3334 0.356567 18.943 0.356567H10.2866ZM20.3858 6.1275V4.68477C20.3858 3.88797 19.7398 3.24203 18.943 3.24203H10.2866C9.48984 3.24203 8.8439 3.88797 8.8439 4.68477V6.12751L20.3858 6.1275ZM3.07297 9.01297V11.8984H26.1567V9.01297H3.07297ZM26.1567 14.7839H18.6968C18.1026 16.465 16.4994 17.6694 14.6148 17.6694C12.7303 17.6694 11.1271 16.465 10.5329 14.7839H3.07297V23.4403H26.1567V14.7839Z" fill="#142251"/>
</svg>
