<svg width="40" height="40" viewBox="0 0 40 40" fill="none" xmlns="http://www.w3.org/2000/svg">
<path d="M20 4C11.1634 4 4 11.1634 4 20C4 28.8366 11.1634 36 20 36C28.8366 36 36 28.8366 36 20C36 11.1634 28.8366 4 20 4ZM0 20C0 8.9543 8.9543 0 20 0C31.0457 0 40 8.9543 40 20C40 31.0457 31.0457 40 20 40C8.9543 40 0 31.0457 0 20ZM11.5858 11.5858C12.3668 10.8047 13.6332 10.8047 14.4142 11.5858L20 17.1716L25.5858 11.5858C26.3668 10.8047 27.6332 10.8047 28.4142 11.5858C29.1953 12.3668 29.1953 13.6332 28.4142 14.4142L22.8284 20L28.4142 25.5858C29.1953 26.3668 29.1953 27.6332 28.4142 28.4142C27.6332 29.1953 26.3668 29.1953 25.5858 28.4142L20 22.8284L14.4142 28.4142C13.6332 29.1953 12.3668 29.1953 11.5858 28.4142C10.8047 27.6332 10.8047 26.3668 11.5858 25.5858L17.1716 20L11.5858 14.4142C10.8047 13.6332 10.8047 12.3668 11.5858 11.5858Z" fill="#989EB1"/>
</svg>
