<svg width="316" height="194" viewBox="0 0 316 194" fill="none" xmlns="http://www.w3.org/2000/svg">
<rect width="315" height="194" rx="25" fill="#F3F6F9"/>
<path d="M97.7195 52.8286L26.7539 96.6583L58.0878 158.247L123.814 118.739L97.7195 52.8286Z" fill="white" stroke="#989EB1" stroke-width="2"/>
<path d="M112.077 31.7429L41.1113 70.3213L51.935 137.161L117.661 97.6534L112.077 31.7429Z" fill="white" stroke="#142251" stroke-width="2"/>
<path d="M105.312 75.7317L105.312 67.1649L57.5227 95.7537L57.5227 155.862C57.5227 158.049 58.6956 159.117 60.1423 158.247L125.869 118.739C127.315 117.87 128.488 115.392 128.488 113.205L128.488 61.3702L105.312 75.7317Z" fill="white" stroke="#989EB1" stroke-width="2"/>
<path d="M52.7969 80.0026L89.1001 60.0107" stroke="#142251" stroke-width="2"/>
<path d="M52.9863 85.9427L75.1374 73.7537" stroke="#142251" stroke-width="2"/>
<path d="M224.684 52.8286L153.719 96.6583L185.053 158.247L250.779 118.739L224.684 52.8286Z" fill="white" stroke="#989EB1" stroke-width="2"/>
<path d="M239.042 31.7429L168.076 70.3213L178.9 137.161L244.626 97.6534L239.042 31.7429Z" fill="white" stroke="#142251" stroke-width="2"/>
<path d="M232.277 75.7317L232.277 67.1649L184.488 95.7537L184.488 155.862C184.488 158.049 185.66 159.117 187.107 158.247L252.834 118.739C254.28 117.87 255.453 115.392 255.453 113.205L255.453 61.3702L232.277 75.7317Z" fill="white" stroke="#989EB1" stroke-width="2"/>
<path d="M179.762 80.0026L216.065 60.0107" stroke="#142251" stroke-width="2"/>
<path d="M179.951 85.9427L202.102 73.7537" stroke="#142251" stroke-width="2"/>
<path d="M224.684 52.8286L153.719 96.6583L185.053 158.247L250.779 118.739L224.684 52.8286Z" fill="white" stroke="#989EB1" stroke-width="2"/>
<path d="M239.042 31.7429L168.076 70.3212L178.9 137.161L244.626 97.6534L239.042 31.7429Z" fill="white" stroke="#142251" stroke-width="2"/>
<path d="M232.277 75.7317L232.277 67.1649L184.488 95.7537L184.488 155.862C184.488 158.049 185.66 159.117 187.107 158.247L252.834 118.739C254.28 117.87 255.453 115.392 255.453 113.205L255.453 61.3702L232.277 75.7317Z" fill="white" stroke="#989EB1" stroke-width="2"/>
<path d="M179.762 80.0026L216.065 60.0107" stroke="#142251" stroke-width="2"/>
<path d="M179.951 85.9427L202.102 73.7537" stroke="#142251" stroke-width="2"/>
<path d="M312 143.5L314 147.5" stroke="#989EB1" stroke-width="2"/>
<path d="M309.5 75L314.5 72" stroke="#142251" stroke-width="2"/>
<path d="M299.5 75.5L283 86C283 86 300.675 121.045 312 143.5" stroke="#989EB1" stroke-width="2"/>
<path d="M314.5 51L297.5 59.5L308 126L312.5 124" stroke="#142251" stroke-width="2"/>
<path d="M309.5 69L314.5 66" stroke="#142251" stroke-width="2"/>
</svg>
