<svg width="335" height="150" viewBox="0 0 335 150" fill="none" xmlns="http://www.w3.org/2000/svg">
<rect width="335" height="150" rx="10" fill="#F3F6F9"/>
<rect width="1.41976" height="3.95712" transform="matrix(1 0 0 -1 192.84 76.8064)" fill="#142251"/>
<rect width="1.41976" height="1.97856" transform="matrix(1 0 0 -1 195.678 75.8171)" fill="#142251"/>
<rect width="1.41976" height="1.97856" transform="matrix(1 0 0 -1 190 75.8171)" fill="#142251"/>
<rect width="1.41976" height="1.97856" transform="matrix(1 0 0 -1 198.52 75.8171)" fill="#142251"/>
<rect width="1.41976" height="1.97856" transform="matrix(1 0 0 -1 201.357 75.8171)" fill="#142251"/>
<rect width="1.41976" height="3.95712" transform="matrix(1 0 0 -1 204.197 76.8066)" fill="#142251"/>
<rect width="1.41976" height="5.93568" transform="matrix(1 0 0 -1 207.035 77.7959)" fill="#142251"/>
<rect width="1.41976" height="21.7642" transform="matrix(1 0 0 -1 209.877 85.71)" fill="#142251"/>
<rect width="1.41976" height="19.7856" transform="matrix(1 0 0 -1 212.717 84.7207)" fill="#142251"/>
<rect width="1.41976" height="11.8714" transform="matrix(1 0 0 -1 215.555 80.7637)" fill="#142251"/>
<rect width="1.41976" height="31.657" transform="matrix(1 0 0 -1 218.395 90.6565)" fill="#142251"/>
<rect width="1.41976" height="25.7213" transform="matrix(1 0 0 -1 221.236 87.6887)" fill="#142251"/>
<rect width="1.41976" height="55.3997" transform="matrix(1 0 0 -1 224.074 102.528)" fill="#142251"/>
<rect width="1.41976" height="49.464" transform="matrix(1 0 0 -1 226.912 99.5598)" fill="#142251"/>
<rect width="1.41976" height="39.5712" transform="matrix(1 0 0 -1 229.752 94.6135)" fill="#142251"/>
<rect width="1.41976" height="45.5069" transform="matrix(1 0 0 -1 232.594 97.5813)" fill="#142251"/>
<rect width="1.41976" height="27.6998" transform="matrix(1 0 0 -1 235.432 88.678)" fill="#142251"/>
<rect width="1.41976" height="15.8285" transform="matrix(1 0 0 -1 238.271 82.7422)" fill="#142251"/>
<rect width="1.41976" height="9.89279" transform="matrix(1 0 0 -1 241.111 79.7744)" fill="#142251"/>
<rect width="1.41976" height="17.807" transform="matrix(1 0 0 -1 243.951 83.7314)" fill="#142251"/>
<rect width="1.41976" height="9.89279" transform="matrix(1 0 0 -1 246.791 79.7744)" fill="#142251"/>
<rect width="1.41976" height="19.7856" transform="matrix(1 0 0 -1 252.469 84.7207)" fill="#AFB4C4"/>
<rect width="1.41976" height="7.91424" transform="matrix(1 0 0 -1 255.309 78.7852)" fill="#AFB4C4"/>
<rect width="1.41976" height="11.8714" transform="matrix(1 0 0 -1 258.148 80.7637)" fill="#AFB4C4"/>
<rect width="1.41976" height="9.89279" transform="matrix(1 0 0 -1 260.988 79.7744)" fill="#AFB4C4"/>
<rect width="1.41976" height="7.91424" transform="matrix(1 0 0 -1 263.828 78.7852)" fill="#AFB4C4"/>
<rect width="1.41976" height="3.95712" transform="matrix(1 0 0 -1 266.668 76.8066)" fill="#AFB4C4"/>
<rect width="1.41976" height="5.93568" transform="matrix(1 0 0 -1 269.506 77.7959)" fill="#AFB4C4"/>
<rect width="1.41976" height="7.91424" transform="matrix(1 0 0 -1 272.346 78.7852)" fill="#AFB4C4"/>
<rect width="1.41976" height="1.97856" transform="matrix(1 0 0 -1 275.186 75.8171)" fill="#AFB4C4"/>
<rect width="1.41977" height="3.95712" transform="matrix(1 0 0 -1 278.025 76.8066)" fill="#AFB4C4"/>
<rect width="1.41976" height="3.95712" transform="matrix(1 0 0 -1 280.865 76.8066)" fill="#AFB4C4"/>
<rect width="1.41976" height="1.97856" transform="matrix(1 0 0 -1 283.705 75.8171)" fill="#AFB4C4"/>
<rect width="1.41976" height="3.95712" transform="matrix(1 0 0 -1 286.543 76.8066)" fill="#AFB4C4"/>
<rect width="1.41976" height="1.97856" transform="matrix(1 0 0 -1 289.385 75.8171)" fill="#AFB4C4"/>
<rect width="1.41976" height="1.97856" transform="matrix(1 0 0 -1 292.223 75.8174)" fill="#AFB4C4"/>
<rect width="1.41976" height="1.97856" transform="matrix(1 0 0 -1 295.062 75.8171)" fill="#AFB4C4"/>
<rect width="1.41976" height="1.97856" transform="matrix(1 0 0 -1 297.9 75.8171)" fill="#AFB4C4"/>
<rect width="1.41976" height="1.97856" transform="matrix(1 0 0 -1 300.742 75.8174)" fill="#AFB4C4"/>
<rect width="1.41976" height="1.97856" transform="matrix(1 0 0 -1 303.58 75.8171)" fill="#AFB4C4"/>
<rect width="1.41976" height="57.3782" transform="matrix(1 0 0 -1 249.633 103)" fill="#E4E7F1"/>
<circle r="2.8478" transform="matrix(1 0 0 -1 80.5177 63.7103)" fill="#E4E7F1"/>
<path d="M28.67 46V37.126L22.55 46H21.275V34.1H22.856V42.991L28.976 34.1H30.251V46H28.67ZM35.9585 46.221C34.6778 46.221 33.6125 45.796 32.7625 44.946C31.9125 44.0847 31.4875 43.0193 31.4875 41.75C31.4875 40.4807 31.9125 39.421 32.7625 38.571C33.6125 37.7097 34.6778 37.279 35.9585 37.279C36.7972 37.279 37.5508 37.483 38.2195 37.891C38.8882 38.2877 39.3868 38.826 39.7155 39.506L38.4745 40.22C38.2592 39.7667 37.9248 39.404 37.4715 39.132C37.0295 38.86 36.5252 38.724 35.9585 38.724C35.1085 38.724 34.3945 39.013 33.8165 39.591C33.2498 40.169 32.9665 40.8887 32.9665 41.75C32.9665 42.6 33.2498 43.314 33.8165 43.892C34.3945 44.47 35.1085 44.759 35.9585 44.759C36.5252 44.759 37.0352 44.6287 37.4885 44.368C37.9418 44.096 38.2875 43.7333 38.5255 43.28L39.7835 44.011C39.4208 44.6797 38.8995 45.218 38.2195 45.626C37.5395 46.0227 36.7858 46.221 35.9585 46.221ZM47.9414 37.5V46H46.4624V38.911H42.0594V46H40.5804V37.5H47.9414ZM56.6867 44.929C55.814 45.7903 54.7543 46.221 53.5077 46.221C52.261 46.221 51.2013 45.7903 50.3287 44.929C49.4673 44.0677 49.0367 43.008 49.0367 41.75C49.0367 40.492 49.4673 39.4323 50.3287 38.571C51.2013 37.7097 52.261 37.279 53.5077 37.279C54.7543 37.279 55.814 37.7097 56.6867 38.571C57.5593 39.4323 57.9957 40.492 57.9957 41.75C57.9957 43.008 57.5593 44.0677 56.6867 44.929ZM53.5077 44.776C54.3577 44.776 55.0717 44.487 55.6497 43.909C56.2277 43.331 56.5167 42.6113 56.5167 41.75C56.5167 40.8887 56.2277 40.169 55.6497 39.591C55.0717 39.013 54.3577 38.724 53.5077 38.724C52.669 38.724 51.9607 39.013 51.3827 39.591C50.8047 40.169 50.5157 40.8887 50.5157 41.75C50.5157 42.6113 50.8047 43.331 51.3827 43.909C51.9607 44.487 52.669 44.776 53.5077 44.776ZM65.8494 37.5V46H64.3704V38.928H61.0214V42.396C61.0214 43.79 60.7381 44.7647 60.1714 45.32C59.6161 45.864 58.8284 46.0907 57.8084 46V44.606C58.3864 44.6853 58.8171 44.5607 59.1004 44.232C59.3951 43.892 59.5424 43.2687 59.5424 42.362V37.5H65.8494ZM70.9975 40.56C71.8475 40.56 72.5501 40.815 73.1055 41.325C73.6721 41.8237 73.9555 42.4753 73.9555 43.28C73.9555 44.0847 73.6721 44.742 73.1055 45.252C72.5501 45.7507 71.8475 46 70.9975 46H67.4105V37.5H68.8895V40.56H70.9975ZM70.9975 44.623C71.4168 44.623 71.7681 44.504 72.0515 44.266C72.3461 44.0167 72.4935 43.688 72.4935 43.28C72.4935 42.872 72.3461 42.5433 72.0515 42.294C71.7681 42.0447 71.4168 41.92 70.9975 41.92H68.8895V44.623H70.9975ZM79.2726 41.648C80.2133 42.0333 80.6836 42.7077 80.6836 43.671C80.6836 44.385 80.4003 44.9913 79.8336 45.49C79.267 45.9773 78.4623 46.221 77.4196 46.221C75.7196 46.221 74.5806 45.541 74.0026 44.181L75.2436 43.45C75.5723 44.3793 76.3033 44.844 77.4366 44.844C78.0033 44.844 78.4396 44.725 78.7456 44.487C79.063 44.2377 79.2216 43.9203 79.2216 43.535C79.2216 43.195 79.0913 42.9173 78.8306 42.702C78.5813 42.4867 78.2413 42.379 77.8106 42.379H76.5696V41.036H77.4876C77.9183 41.036 78.2526 40.934 78.4906 40.73C78.7286 40.5147 78.8476 40.2257 78.8476 39.863C78.8476 39.5003 78.706 39.2057 78.4226 38.979C78.1506 38.7523 77.771 38.639 77.2836 38.639C76.3316 38.639 75.6856 39.0413 75.3456 39.846L74.1386 39.149C74.7393 37.9023 75.7876 37.279 77.2836 37.279C78.213 37.279 78.944 37.517 79.4766 37.993C80.0206 38.469 80.2926 39.0527 80.2926 39.744C80.2926 40.6053 79.9526 41.24 79.2726 41.648ZM87.2071 37.5H88.7881L85.3201 46.527C84.9574 47.4903 84.4474 48.2213 83.7901 48.72C83.1328 49.23 82.3848 49.4567 81.5461 49.4V48.023C82.5888 48.1023 83.3538 47.5357 83.8411 46.323L83.9771 46.017L80.2881 37.5H81.8521L84.7591 44.164L87.2071 37.5ZM90.0481 42.43C90.1954 43.1893 90.5411 43.7787 91.0851 44.198C91.6404 44.6173 92.3204 44.827 93.1251 44.827C94.2471 44.827 95.0631 44.4133 95.5731 43.586L96.8311 44.3C96.0038 45.5807 94.7571 46.221 93.0911 46.221C91.7424 46.221 90.6431 45.8017 89.7931 44.963C88.9544 44.113 88.5351 43.042 88.5351 41.75C88.5351 40.4693 88.9488 39.404 89.7761 38.554C90.6034 37.704 91.6744 37.279 92.9891 37.279C94.2358 37.279 95.2501 37.721 96.0321 38.605C96.8254 39.4777 97.2221 40.5317 97.2221 41.767C97.2221 41.9823 97.2051 42.2033 97.1711 42.43H90.0481ZM92.9891 38.673C92.1958 38.673 91.5384 38.8997 91.0171 39.353C90.4958 39.795 90.1728 40.39 90.0481 41.138H95.7261C95.6014 40.3333 95.2841 39.7213 94.7741 39.302C94.2641 38.8827 93.6691 38.673 92.9891 38.673ZM106.742 37.5V46H105.297V39.829L102.594 44.181H102.407L99.7042 39.829V46H98.2422V37.5H99.8232L102.492 41.801L105.161 37.5H106.742ZM28.16 54.5H29.639V63H28.16V61.538C27.4233 62.66 26.3523 63.221 24.947 63.221C23.757 63.221 22.7427 62.7903 21.904 61.929C21.0653 61.0563 20.646 59.9967 20.646 58.75C20.646 57.5033 21.0653 56.4493 21.904 55.588C22.7427 54.7153 23.757 54.279 24.947 54.279C26.3523 54.279 27.4233 54.84 28.16 55.962V54.5ZM25.134 61.793C25.9953 61.793 26.715 61.504 27.293 60.926C27.871 60.3367 28.16 59.6113 28.16 58.75C28.16 57.8887 27.871 57.169 27.293 56.591C26.715 56.0017 25.9953 55.707 25.134 55.707C24.284 55.707 23.57 56.0017 22.992 56.591C22.414 57.169 22.125 57.8887 22.125 58.75C22.125 59.6113 22.414 60.3367 22.992 60.926C23.57 61.504 24.284 61.793 25.134 61.793ZM35.8918 54.279C37.0818 54.279 38.0961 54.7153 38.9348 55.588C39.7735 56.4493 40.1928 57.5033 40.1928 58.75C40.1928 59.9967 39.7735 61.0563 38.9348 61.929C38.0961 62.7903 37.0818 63.221 35.8918 63.221C34.4865 63.221 33.4155 62.66 32.6788 61.538V66.4H31.1998V54.5H32.6788V55.962C33.4155 54.84 34.4865 54.279 35.8918 54.279ZM35.7048 61.793C36.5548 61.793 37.2688 61.504 37.8468 60.926C38.4248 60.3367 38.7138 59.6113 38.7138 58.75C38.7138 57.8887 38.4248 57.169 37.8468 56.591C37.2688 56.0017 36.5548 55.707 35.7048 55.707C34.8435 55.707 34.1238 56.0017 33.5458 56.591C32.9678 57.169 32.6788 57.8887 32.6788 58.75C32.6788 59.6113 32.9678 60.3367 33.5458 60.926C34.1238 61.504 34.8435 61.793 35.7048 61.793ZM45.2726 63.221C43.992 63.221 42.9266 62.796 42.0766 61.946C41.2266 61.0847 40.8016 60.0193 40.8016 58.75C40.8016 57.4807 41.2266 56.421 42.0766 55.571C42.9266 54.7097 43.992 54.279 45.2726 54.279C46.1113 54.279 46.865 54.483 47.5336 54.891C48.2023 55.2877 48.701 55.826 49.0296 56.506L47.7886 57.22C47.5733 56.7667 47.239 56.404 46.7856 56.132C46.3436 55.86 45.8393 55.724 45.2726 55.724C44.4226 55.724 43.7086 56.013 43.1306 56.591C42.564 57.169 42.2806 57.8887 42.2806 58.75C42.2806 59.6 42.564 60.314 43.1306 60.892C43.7086 61.47 44.4226 61.759 45.2726 61.759C45.8393 61.759 46.3493 61.6287 46.8026 61.368C47.256 61.096 47.6016 60.7333 47.8396 60.28L49.0976 61.011C48.735 61.6797 48.2136 62.218 47.5336 62.626C46.8536 63.0227 46.1 63.221 45.2726 63.221ZM50.7987 59.43C50.946 60.1893 51.2917 60.7787 51.8357 61.198C52.391 61.6173 53.071 61.827 53.8757 61.827C54.9977 61.827 55.8137 61.4133 56.3237 60.586L57.5817 61.3C56.7544 62.5807 55.5077 63.221 53.8417 63.221C52.493 63.221 51.3937 62.8017 50.5437 61.963C49.705 61.113 49.2857 60.042 49.2857 58.75C49.2857 57.4693 49.6994 56.404 50.5267 55.554C51.354 54.704 52.425 54.279 53.7397 54.279C54.9864 54.279 56.0007 54.721 56.7827 55.605C57.576 56.4777 57.9727 57.5317 57.9727 58.767C57.9727 58.9823 57.9557 59.2033 57.9217 59.43H50.7987ZM53.7397 55.673C52.9464 55.673 52.289 55.8997 51.7677 56.353C51.2464 56.795 50.9234 57.39 50.7987 58.138H56.4767C56.352 57.3333 56.0347 56.7213 55.5247 56.302C55.0147 55.8827 54.4197 55.673 53.7397 55.673ZM64.8748 54.5H66.3538V63H64.8748V59.447H60.4718V63H58.9928V54.5H60.4718V58.036H64.8748V54.5ZM74.9631 54.5H76.4421V63H74.9631V61.538C74.2265 62.66 73.1555 63.221 71.7501 63.221C70.5601 63.221 69.5458 62.7903 68.7071 61.929C67.8685 61.0563 67.4491 59.9967 67.4491 58.75C67.4491 57.5033 67.8685 56.4493 68.7071 55.588C69.5458 54.7153 70.5601 54.279 71.7501 54.279C73.1555 54.279 74.2265 54.84 74.9631 55.962V54.5ZM71.9371 61.793C72.7985 61.793 73.5181 61.504 74.0961 60.926C74.6741 60.3367 74.9631 59.6113 74.9631 58.75C74.9631 57.8887 74.6741 57.169 74.0961 56.591C73.5181 56.0017 72.7985 55.707 71.9371 55.707C71.0871 55.707 70.3731 56.0017 69.7951 56.591C69.2171 57.169 68.9281 57.8887 68.9281 58.75C68.9281 59.6113 69.2171 60.3367 69.7951 60.926C70.3731 61.504 71.0871 61.793 71.9371 61.793ZM85.0919 54.5V63H83.6129V55.928H80.2639V59.396C80.2639 60.79 79.9806 61.7647 79.4139 62.32C78.8586 62.864 78.0709 63.0907 77.0509 63V61.606C77.6289 61.6853 78.0596 61.5607 78.3429 61.232C78.6376 60.892 78.7849 60.2687 78.7849 59.362V54.5H85.0919ZM28.483 71.5V80H27.004V72.911H22.601V80H21.122V71.5H28.483ZM34.7463 71.279C35.9363 71.279 36.9506 71.7153 37.7893 72.588C38.628 73.4493 39.0473 74.5033 39.0473 75.75C39.0473 76.9967 38.628 78.0563 37.7893 78.929C36.9506 79.7903 35.9363 80.221 34.7463 80.221C33.341 80.221 32.27 79.66 31.5333 78.538V83.4H30.0543V71.5H31.5333V72.962C32.27 71.84 33.341 71.279 34.7463 71.279ZM34.5593 78.793C35.4093 78.793 36.1233 78.504 36.7013 77.926C37.2793 77.3367 37.5683 76.6113 37.5683 75.75C37.5683 74.8887 37.2793 74.169 36.7013 73.591C36.1233 73.0017 35.4093 72.707 34.5593 72.707C33.698 72.707 32.9783 73.0017 32.4003 73.591C31.8223 74.169 31.5333 74.8887 31.5333 75.75C31.5333 76.6113 31.8223 77.3367 32.4003 77.926C32.9783 78.504 33.698 78.793 34.5593 78.793ZM47.3061 78.929C46.4335 79.7903 45.3738 80.221 44.1271 80.221C42.8805 80.221 41.8208 79.7903 40.9481 78.929C40.0868 78.0677 39.6561 77.008 39.6561 75.75C39.6561 74.492 40.0868 73.4323 40.9481 72.571C41.8208 71.7097 42.8805 71.279 44.1271 71.279C45.3738 71.279 46.4335 71.7097 47.3061 72.571C48.1788 73.4323 48.6151 74.492 48.6151 75.75C48.6151 77.008 48.1788 78.0677 47.3061 78.929ZM44.1271 78.776C44.9771 78.776 45.6911 78.487 46.2691 77.909C46.8471 77.331 47.1361 76.6113 47.1361 75.75C47.1361 74.8887 46.8471 74.169 46.2691 73.591C45.6911 73.013 44.9771 72.724 44.1271 72.724C43.2885 72.724 42.5801 73.013 42.0021 73.591C41.4241 74.169 41.1351 74.8887 41.1351 75.75C41.1351 76.6113 41.4241 77.331 42.0021 77.909C42.5801 78.487 43.2885 78.776 44.1271 78.776ZM58.2127 72.775C59.006 73.591 59.4027 74.5827 59.4027 75.75C59.4027 76.9173 59.006 77.909 58.2127 78.725C57.4193 79.541 56.3597 80.0227 55.0337 80.17V83.4H53.5717V80.17C52.2457 80.0227 51.186 79.541 50.3927 78.725C49.5993 77.909 49.2027 76.9173 49.2027 75.75C49.2027 74.5827 49.5993 73.591 50.3927 72.775C51.186 71.959 52.2457 71.4773 53.5717 71.33V68.1H55.0337V71.33C56.3597 71.4773 57.4193 71.959 58.2127 72.775ZM50.6647 75.75C50.6647 76.532 50.9197 77.195 51.4297 77.739C51.951 78.283 52.665 78.6173 53.5717 78.742V72.758C52.665 72.8713 51.951 73.2 51.4297 73.744C50.9197 74.288 50.6647 74.9567 50.6647 75.75ZM55.0337 78.742C55.9403 78.6173 56.6487 78.283 57.1587 77.739C57.6687 77.195 57.9237 76.532 57.9237 75.75C57.9237 74.968 57.6687 74.305 57.1587 73.761C56.6487 73.217 55.9403 72.8827 55.0337 72.758V78.742ZM61.5074 76.43C61.6547 77.1893 62.0004 77.7787 62.5444 78.198C63.0997 78.6173 63.7797 78.827 64.5844 78.827C65.7064 78.827 66.5224 78.4133 67.0324 77.586L68.2904 78.3C67.463 79.5807 66.2164 80.221 64.5504 80.221C63.2017 80.221 62.1024 79.8017 61.2524 78.963C60.4137 78.113 59.9944 77.042 59.9944 75.75C59.9944 74.4693 60.408 73.404 61.2354 72.554C62.0627 71.704 63.1337 71.279 64.4484 71.279C65.695 71.279 66.7094 71.721 67.4914 72.605C68.2847 73.4777 68.6814 74.5317 68.6814 75.767C68.6814 75.9823 68.6644 76.2033 68.6304 76.43H61.5074ZM64.4484 72.673C63.655 72.673 62.9977 72.8997 62.4764 73.353C61.955 73.795 61.632 74.39 61.5074 75.138H67.1854C67.0607 74.3333 66.7434 73.7213 66.2334 73.302C65.7234 72.8827 65.1284 72.673 64.4484 72.673ZM73.6799 80.221C72.3992 80.221 71.3339 79.796 70.4839 78.946C69.6339 78.0847 69.2089 77.0193 69.2089 75.75C69.2089 74.4807 69.6339 73.421 70.4839 72.571C71.3339 71.7097 72.3992 71.279 73.6799 71.279C74.5186 71.279 75.2722 71.483 75.9409 71.891C76.6096 72.2877 77.1082 72.826 77.4369 73.506L76.1959 74.22C75.9806 73.7667 75.6462 73.404 75.1929 73.132C74.7509 72.86 74.2466 72.724 73.6799 72.724C72.8299 72.724 72.1159 73.013 71.5379 73.591C70.9712 74.169 70.6879 74.8887 70.6879 75.75C70.6879 76.6 70.9712 77.314 71.5379 77.892C72.1159 78.47 72.8299 78.759 73.6799 78.759C74.2466 78.759 74.7566 78.6287 75.2099 78.368C75.6632 78.096 76.0089 77.7333 76.2469 77.28L77.5049 78.011C77.1422 78.6797 76.6209 79.218 75.9409 79.626C75.2609 80.0227 74.5072 80.221 73.6799 80.221ZM82.164 80.221C80.8833 80.221 79.818 79.796 78.968 78.946C78.118 78.0847 77.693 77.0193 77.693 75.75C77.693 74.4807 78.118 73.421 78.968 72.571C79.818 71.7097 80.8833 71.279 82.164 71.279C83.0026 71.279 83.7563 71.483 84.425 71.891C85.0936 72.2877 85.5923 72.826 85.921 73.506L84.68 74.22C84.4646 73.7667 84.1303 73.404 83.677 73.132C83.235 72.86 82.7306 72.724 82.164 72.724C81.314 72.724 80.6 73.013 80.022 73.591C79.4553 74.169 79.172 74.8887 79.172 75.75C79.172 76.6 79.4553 77.314 80.022 77.892C80.6 78.47 81.314 78.759 82.164 78.759C82.7306 78.759 83.2406 78.6287 83.694 78.368C84.1473 78.096 84.493 77.7333 84.731 77.28L85.989 78.011C85.6263 78.6797 85.105 79.218 84.425 79.626C83.745 80.0227 82.9913 80.221 82.164 80.221ZM92.9568 71.5H94.1468V80H92.6848V74.033L87.9758 80H86.7858V71.5H88.2478V77.467L92.9568 71.5ZM102.892 78.929C102.019 79.7903 100.96 80.221 99.7131 80.221C98.4665 80.221 97.4068 79.7903 96.5341 78.929C95.6728 78.0677 95.2421 77.008 95.2421 75.75C95.2421 74.492 95.6728 73.4323 96.5341 72.571C97.4068 71.7097 98.4665 71.279 99.7131 71.279C100.96 71.279 102.019 71.7097 102.892 72.571C103.765 73.4323 104.201 74.492 104.201 75.75C104.201 77.008 103.765 78.0677 102.892 78.929ZM99.7131 78.776C100.563 78.776 101.277 78.487 101.855 77.909C102.433 77.331 102.722 76.6113 102.722 75.75C102.722 74.8887 102.433 74.169 101.855 73.591C101.277 73.013 100.563 72.724 99.7131 72.724C98.8745 72.724 98.1661 73.013 97.5881 73.591C97.0101 74.169 96.7211 74.8887 96.7211 75.75C96.7211 76.6113 97.0101 77.331 97.5881 77.909C98.1661 78.487 98.8745 78.776 99.7131 78.776ZM111.147 71.5H112.626V80H111.147V76.447H106.744V80H105.265V71.5H106.744V75.036H111.147V71.5ZM121.235 71.5H122.714V80H121.235V78.538C120.498 79.66 119.427 80.221 118.022 80.221C116.832 80.221 115.818 79.7903 114.979 78.929C114.14 78.0563 113.721 76.9967 113.721 75.75C113.721 74.5033 114.14 73.4493 114.979 72.588C115.818 71.7153 116.832 71.279 118.022 71.279C119.427 71.279 120.498 71.84 121.235 72.962V71.5ZM118.209 78.793C119.07 78.793 119.79 78.504 120.368 77.926C120.946 77.3367 121.235 76.6113 121.235 75.75C121.235 74.8887 120.946 74.169 120.368 73.591C119.79 73.0017 119.07 72.707 118.209 72.707C117.359 72.707 116.645 73.0017 116.067 73.591C115.489 74.169 115.2 74.8887 115.2 75.75C115.2 76.6113 115.489 77.3367 116.067 77.926C116.645 78.504 117.359 78.793 118.209 78.793ZM131.364 71.5V80H129.885V72.928H126.536V76.396C126.536 77.79 126.252 78.7647 125.686 79.32C125.13 79.864 124.343 80.0907 123.323 80V78.606C123.901 78.6853 124.331 78.5607 124.615 78.232C124.909 77.892 125.057 77.2687 125.057 76.362V71.5H131.364ZM136.512 74.56C137.362 74.56 138.065 74.815 138.62 75.325C139.187 75.8237 139.47 76.4753 139.47 77.28C139.47 78.0847 139.187 78.742 138.62 79.252C138.065 79.7507 137.362 80 136.512 80H132.925V71.5H134.404V74.56H136.512ZM136.512 78.623C136.931 78.623 137.283 78.504 137.566 78.266C137.861 78.0167 138.008 77.688 138.008 77.28C138.008 76.872 137.861 76.5433 137.566 76.294C137.283 76.0447 136.931 75.92 136.512 75.92H134.404V78.623H136.512ZM146.262 71.5H147.741V80H146.262V76.447H141.859V80H140.38V71.5H141.859V75.036H146.262V71.5ZM152.899 74.56C153.749 74.56 154.452 74.815 155.007 75.325C155.574 75.8237 155.857 76.4753 155.857 77.28C155.857 78.0847 155.574 78.742 155.007 79.252C154.452 79.7507 153.749 80 152.899 80H149.312V71.5H150.791V74.56H152.899ZM156.962 71.5H158.441V80H156.962V71.5ZM152.899 78.623C153.318 78.623 153.67 78.504 153.953 78.266C154.248 78.0167 154.395 77.688 154.395 77.28C154.395 76.872 154.248 76.5433 153.953 76.294C153.67 76.0447 153.318 75.92 152.899 75.92H150.791V78.623H152.899ZM167.399 80H165.665L163.285 76.787L160.888 80H159.154L162.418 75.631L159.341 71.5H161.092L163.285 74.458L165.478 71.5H167.212L164.152 75.614L167.399 80ZM27.446 88.5V89.928H24.556V97H23.077V89.928H20.17V88.5H27.446ZM28.7671 93.43C28.9144 94.1893 29.2601 94.7787 29.8041 95.198C30.3594 95.6173 31.0394 95.827 31.8441 95.827C32.9661 95.827 33.7821 95.4133 34.2921 94.586L35.5501 95.3C34.7228 96.5807 33.4761 97.221 31.8101 97.221C30.4614 97.221 29.3621 96.8017 28.5121 95.963C27.6734 95.113 27.2541 94.042 27.2541 92.75C27.2541 91.4693 27.6678 90.404 28.4951 89.554C29.3224 88.704 30.3934 88.279 31.7081 88.279C32.9548 88.279 33.9691 88.721 34.7511 89.605C35.5444 90.4777 35.9411 91.5317 35.9411 92.767C35.9411 92.9823 35.9241 93.2033 35.8901 93.43H28.7671ZM31.7081 89.673C30.9148 89.673 30.2574 89.8997 29.7361 90.353C29.2148 90.795 28.8918 91.39 28.7671 92.138H34.4451C34.3204 91.3333 34.0031 90.7213 33.4931 90.302C32.9831 89.8827 32.3881 89.673 31.7081 89.673ZM43.9408 97H42.2068L39.8268 93.787L37.4298 97H35.6958L38.9598 92.631L35.8828 88.5H37.6338L39.8268 91.458L42.0198 88.5H43.7538L40.6938 92.614L43.9408 97ZM50.5138 88.5H51.9928V97H50.5138V93.447H46.1108V97H44.6318V88.5H46.1108V92.036H50.5138V88.5ZM59.7351 88.5H60.9251V97H59.4631V91.033L54.7541 97H53.5641V88.5H55.0261V94.467L59.7351 88.5ZM67.8514 88.5H69.3304V97H67.8514V93.94C67.1714 94.2347 66.4064 94.382 65.5564 94.382C64.4684 94.382 63.6241 94.127 63.0234 93.617C62.4341 93.0957 62.1394 92.3307 62.1394 91.322V88.5H63.6184V91.237C63.6184 91.8717 63.7884 92.325 64.1284 92.597C64.4797 92.869 64.9897 93.005 65.6584 93.005C66.4631 93.005 67.1941 92.8577 67.8514 92.563V88.5ZM71.9345 93.43C72.0818 94.1893 72.4275 94.7787 72.9715 95.198C73.5268 95.6173 74.2068 95.827 75.0115 95.827C76.1335 95.827 76.9495 95.4133 77.4595 94.586L78.7175 95.3C77.8901 96.5807 76.6435 97.221 74.9775 97.221C73.6288 97.221 72.5295 96.8017 71.6795 95.963C70.8408 95.113 70.4215 94.042 70.4215 92.75C70.4215 91.4693 70.8351 90.404 71.6625 89.554C72.4898 88.704 73.5608 88.279 74.8755 88.279C76.1221 88.279 77.1365 88.721 77.9185 89.605C78.7118 90.4777 79.1085 91.5317 79.1085 92.767C79.1085 92.9823 79.0915 93.2033 79.0575 93.43H71.9345ZM74.8755 89.673C74.0821 89.673 73.4248 89.8997 72.9035 90.353C72.3821 90.795 72.0591 91.39 71.9345 92.138H77.6125C77.4878 91.3333 77.1705 90.7213 76.6605 90.302C76.1505 89.8827 75.5555 89.673 74.8755 89.673ZM84.107 97.221C82.8263 97.221 81.761 96.796 80.911 95.946C80.061 95.0847 79.636 94.0193 79.636 92.75C79.636 91.4807 80.061 90.421 80.911 89.571C81.761 88.7097 82.8263 88.279 84.107 88.279C84.9457 88.279 85.6993 88.483 86.368 88.891C87.0367 89.2877 87.5353 89.826 87.864 90.506L86.623 91.22C86.4077 90.7667 86.0733 90.404 85.62 90.132C85.178 89.86 84.6737 89.724 84.107 89.724C83.257 89.724 82.543 90.013 81.965 90.591C81.3983 91.169 81.115 91.8887 81.115 92.75C81.115 93.6 81.3983 94.314 81.965 94.892C82.543 95.47 83.257 95.759 84.107 95.759C84.6737 95.759 85.1837 95.6287 85.637 95.368C86.0903 95.096 86.436 94.7333 86.674 94.28L87.932 95.011C87.5693 95.6797 87.048 96.218 86.368 96.626C85.688 97.0227 84.9343 97.221 84.107 97.221ZM95.9199 97H94.0839L90.2079 92.971V97H88.7289V88.5H90.2079V92.257L93.8799 88.5H95.7839L91.7209 92.614L95.9199 97ZM102.786 88.5H103.976V97H102.514V91.033L97.8053 97H96.6153V88.5H98.0773V94.467L102.786 88.5ZM112.926 97H111.192L108.812 93.787L106.415 97H104.681L107.945 92.631L104.868 88.5H106.619L108.812 91.458L111.005 88.5H112.739L109.679 92.614L112.926 97ZM25.117 114.221C23.8363 114.221 22.771 113.796 21.921 112.946C21.071 112.085 20.646 111.019 20.646 109.75C20.646 108.481 21.071 107.421 21.921 106.571C22.771 105.71 23.8363 105.279 25.117 105.279C25.9557 105.279 26.7093 105.483 27.378 105.891C28.0467 106.288 28.5453 106.826 28.874 107.506L27.633 108.22C27.4177 107.767 27.0833 107.404 26.63 107.132C26.188 106.86 25.6837 106.724 25.117 106.724C24.267 106.724 23.553 107.013 22.975 107.591C22.4083 108.169 22.125 108.889 22.125 109.75C22.125 110.6 22.4083 111.314 22.975 111.892C23.553 112.47 24.267 112.759 25.117 112.759C25.6837 112.759 26.1937 112.629 26.647 112.368C27.1003 112.096 27.446 111.733 27.684 111.28L28.942 112.011C28.5793 112.68 28.058 113.218 27.378 113.626C26.698 114.023 25.9443 114.221 25.117 114.221ZM34.4309 105.279C35.6209 105.279 36.6352 105.715 37.4739 106.588C38.3125 107.449 38.7319 108.503 38.7319 109.75C38.7319 110.997 38.3125 112.056 37.4739 112.929C36.6352 113.79 35.6209 114.221 34.4309 114.221C33.0255 114.221 31.9545 113.66 31.2179 112.538V117.4H29.7389V105.5H31.2179V106.962C31.9545 105.84 33.0255 105.279 34.4309 105.279ZM34.2439 112.793C35.0939 112.793 35.8079 112.504 36.3859 111.926C36.9639 111.337 37.2529 110.611 37.2529 109.75C37.2529 108.889 36.9639 108.169 36.3859 107.591C35.8079 107.002 35.0939 106.707 34.2439 106.707C33.3825 106.707 32.6629 107.002 32.0849 107.591C31.5069 108.169 31.2179 108.889 31.2179 109.75C31.2179 110.611 31.5069 111.337 32.0849 111.926C32.6629 112.504 33.3825 112.793 34.2439 112.793ZM40.8537 110.43C41.001 111.189 41.3467 111.779 41.8907 112.198C42.446 112.617 43.126 112.827 43.9307 112.827C45.0527 112.827 45.8687 112.413 46.3787 111.586L47.6367 112.3C46.8094 113.581 45.5627 114.221 43.8967 114.221C42.548 114.221 41.4487 113.802 40.5987 112.963C39.76 112.113 39.3407 111.042 39.3407 109.75C39.3407 108.469 39.7544 107.404 40.5817 106.554C41.409 105.704 42.48 105.279 43.7947 105.279C45.0414 105.279 46.0557 105.721 46.8377 106.605C47.631 107.478 48.0277 108.532 48.0277 109.767C48.0277 109.982 48.0107 110.203 47.9767 110.43H40.8537ZM43.7947 106.673C43.0014 106.673 42.344 106.9 41.8227 107.353C41.3014 107.795 40.9784 108.39 40.8537 109.138H46.5317C46.407 108.333 46.0897 107.721 45.5797 107.302C45.0697 106.883 44.4747 106.673 43.7947 106.673ZM56.0258 112.589H57.1988V116.278H55.7368V114H49.3618V116.278H47.8998V112.589H48.9368C49.4808 111.841 49.7528 110.793 49.7528 109.444V105.5H56.0258V112.589ZM50.6198 112.589H54.5638V106.877H51.2148V109.444C51.2148 110.713 51.0165 111.762 50.6198 112.589ZM61.7759 114.221C60.4952 114.221 59.4299 113.796 58.5799 112.946C57.7299 112.085 57.3049 111.019 57.3049 109.75C57.3049 108.481 57.7299 107.421 58.5799 106.571C59.4299 105.71 60.4952 105.279 61.7759 105.279C62.6146 105.279 63.3682 105.483 64.0369 105.891C64.7056 106.288 65.2042 106.826 65.5329 107.506L64.2919 108.22C64.0766 107.767 63.7422 107.404 63.2889 107.132C62.8469 106.86 62.3426 106.724 61.7759 106.724C60.9259 106.724 60.2119 107.013 59.6339 107.591C59.0672 108.169 58.7839 108.889 58.7839 109.75C58.7839 110.6 59.0672 111.314 59.6339 111.892C60.2119 112.47 60.9259 112.759 61.7759 112.759C62.3426 112.759 62.8526 112.629 63.3059 112.368C63.7592 112.096 64.1049 111.733 64.3429 111.28L65.6009 112.011C65.2382 112.68 64.7169 113.218 64.0369 113.626C63.3569 114.023 62.6032 114.221 61.7759 114.221ZM72.5724 105.5V106.928H69.6824V114H68.2034V106.928H65.2964V105.5H72.5724ZM78.8495 109.631C79.7221 109.994 80.1585 110.651 80.1585 111.603C80.1585 112.306 79.9205 112.884 79.4445 113.337C78.9798 113.779 78.3111 114 77.4385 114H73.1885V105.5H77.0985C77.9485 105.5 78.6058 105.715 79.0705 106.146C79.5351 106.565 79.7675 107.121 79.7675 107.812C79.7675 108.628 79.4615 109.234 78.8495 109.631ZM77.0305 106.826H74.6335V109.053H77.0305C77.8918 109.053 78.3225 108.673 78.3225 107.914C78.3225 107.189 77.8918 106.826 77.0305 106.826ZM77.3535 112.657C77.7841 112.657 78.1128 112.555 78.3395 112.351C78.5775 112.147 78.6965 111.858 78.6965 111.484C78.6965 111.133 78.5775 110.861 78.3395 110.668C78.1128 110.464 77.7841 110.362 77.3535 110.362H74.6335V112.657H77.3535Z" fill="#142251"/>
</svg>
