<svg width="335" height="150" viewBox="0 0 335 150" fill="none" xmlns="http://www.w3.org/2000/svg">
<rect width="335" height="150" rx="10" fill="#F3F6F9"/>
<path d="M174.868 61.221C173.066 61.221 171.576 60.626 170.397 59.436C169.23 58.246 168.646 56.784 168.646 55.05C168.646 53.316 169.23 51.854 170.397 50.664C171.576 49.474 173.066 48.879 174.868 48.879C175.956 48.879 176.953 49.1397 177.86 49.661C178.778 50.1823 179.492 50.885 180.002 51.769L178.625 52.568C178.285 51.9107 177.775 51.3893 177.095 51.004C176.426 50.6073 175.684 50.409 174.868 50.409C173.497 50.409 172.375 50.851 171.502 51.735C170.641 52.619 170.21 53.724 170.21 55.05C170.21 56.3647 170.641 57.464 171.502 58.348C172.375 59.232 173.497 59.674 174.868 59.674C175.684 59.674 176.426 59.4813 177.095 59.096C177.775 58.6993 178.285 58.178 178.625 57.532L180.002 58.314C179.503 59.198 178.795 59.9063 177.877 60.439C176.959 60.9603 175.956 61.221 174.868 61.221ZM186.485 52.5H187.964V61H186.485V57.94C185.805 58.2347 185.04 58.382 184.19 58.382C183.102 58.382 182.257 58.127 181.657 57.617C181.067 57.0957 180.773 56.3307 180.773 55.322V52.5H182.252V55.237C182.252 55.8717 182.422 56.325 182.762 56.597C183.113 56.869 183.623 57.005 184.292 57.005C185.096 57.005 185.827 56.8577 186.485 56.563V52.5ZM195.872 52.5H197.062V61H195.6V55.033L190.891 61H189.701V52.5H191.163V58.467L195.872 52.5ZM205.127 52.5V53.928H202.237V61H200.758V53.928H197.851V52.5H205.127ZM212.619 52.5H214.098V61H212.619V59.538C211.882 60.66 210.811 61.221 209.406 61.221C208.216 61.221 207.202 60.7903 206.363 59.929C205.524 59.0563 205.105 57.9967 205.105 56.75C205.105 55.5033 205.524 54.4493 206.363 53.588C207.202 52.7153 208.216 52.279 209.406 52.279C210.811 52.279 211.882 52.84 212.619 53.962V52.5ZM209.593 59.793C210.454 59.793 211.174 59.504 211.752 58.926C212.33 58.3367 212.619 57.6113 212.619 56.75C212.619 55.8887 212.33 55.169 211.752 54.591C211.174 54.0017 210.454 53.707 209.593 53.707C208.743 53.707 208.029 54.0017 207.451 54.591C206.873 55.169 206.584 55.8887 206.584 56.75C206.584 57.6113 206.873 58.3367 207.451 58.926C208.029 59.504 208.743 59.793 209.593 59.793ZM216.866 57.43C217.013 58.1893 217.359 58.7787 217.903 59.198C218.458 59.6173 219.138 59.827 219.943 59.827C221.065 59.827 221.881 59.4133 222.391 58.586L223.649 59.3C222.822 60.5807 221.575 61.221 219.909 61.221C218.56 61.221 217.461 60.8017 216.611 59.963C215.772 59.113 215.353 58.042 215.353 56.75C215.353 55.4693 215.767 54.404 216.594 53.554C217.421 52.704 218.492 52.279 219.807 52.279C221.054 52.279 222.068 52.721 222.85 53.605C223.643 54.4777 224.04 55.5317 224.04 56.767C224.04 56.9823 224.023 57.2033 223.989 57.43H216.866ZM219.807 53.673C219.014 53.673 218.356 53.8997 217.835 54.353C217.314 54.795 216.991 55.39 216.866 56.138H222.544C222.419 55.3333 222.102 54.7213 221.592 54.302C221.082 53.8827 220.487 53.673 219.807 53.673ZM233.73 52.5V61H232.285V54.829L229.582 59.181H229.395L226.692 54.829V61H225.23V52.5H226.811L229.48 56.801L232.149 52.5H233.73ZM244.573 52.5H246.052V61H244.573V57.94C243.893 58.2347 243.128 58.382 242.278 58.382C241.19 58.382 240.345 58.127 239.745 57.617C239.155 57.0957 238.861 56.3307 238.861 55.322V52.5H240.34V55.237C240.34 55.8717 240.51 56.325 240.85 56.597C241.201 56.869 241.711 57.005 242.38 57.005C243.184 57.005 243.915 56.8577 244.573 56.563V52.5ZM254.113 52.5V53.928H251.223V61H249.744V53.928H246.837V52.5H254.113ZM261.741 59.929C260.868 60.7903 259.809 61.221 258.562 61.221C257.315 61.221 256.256 60.7903 255.383 59.929C254.522 59.0677 254.091 58.008 254.091 56.75C254.091 55.492 254.522 54.4323 255.383 53.571C256.256 52.7097 257.315 52.279 258.562 52.279C259.809 52.279 260.868 52.7097 261.741 53.571C262.614 54.4323 263.05 55.492 263.05 56.75C263.05 58.008 262.614 59.0677 261.741 59.929ZM258.562 59.776C259.412 59.776 260.126 59.487 260.704 58.909C261.282 58.331 261.571 57.6113 261.571 56.75C261.571 55.8887 261.282 55.169 260.704 54.591C260.126 54.013 259.412 53.724 258.562 53.724C257.723 53.724 257.015 54.013 256.437 54.591C255.859 55.169 255.57 55.8887 255.57 56.75C255.57 57.6113 255.859 58.331 256.437 58.909C257.015 59.487 257.723 59.776 258.562 59.776ZM173.814 72.279C175.004 72.279 176.018 72.7153 176.857 73.588C177.696 74.4493 178.115 75.5033 178.115 76.75C178.115 77.9967 177.696 79.0563 176.857 79.929C176.018 80.7903 175.004 81.221 173.814 81.221C172.409 81.221 171.338 80.66 170.601 79.538V84.4H169.122V72.5H170.601V73.962C171.338 72.84 172.409 72.279 173.814 72.279ZM173.627 79.793C174.477 79.793 175.191 79.504 175.769 78.926C176.347 78.3367 176.636 77.6113 176.636 76.75C176.636 75.8887 176.347 75.169 175.769 74.591C175.191 74.0017 174.477 73.707 173.627 73.707C172.766 73.707 172.046 74.0017 171.468 74.591C170.89 75.169 170.601 75.8887 170.601 76.75C170.601 77.6113 170.89 78.3367 171.468 78.926C172.046 79.504 172.766 79.793 173.627 79.793ZM180.407 77.43C180.554 78.1893 180.9 78.7787 181.444 79.198C181.999 79.6173 182.679 79.827 183.484 79.827C184.606 79.827 185.422 79.4133 185.932 78.586L187.19 79.3C186.362 80.5807 185.116 81.221 183.45 81.221C182.101 81.221 181.002 80.8017 180.152 79.963C179.313 79.113 178.894 78.042 178.894 76.75C178.894 75.4693 179.307 74.404 180.135 73.554C180.962 72.704 182.033 72.279 183.348 72.279C184.594 72.279 185.609 72.721 186.391 73.605C187.184 74.4777 187.581 75.5317 187.581 76.767C187.581 76.9823 187.564 77.2033 187.53 77.43H180.407ZM183.348 73.673C182.554 73.673 181.897 73.8997 181.376 74.353C180.854 74.795 180.531 75.39 180.407 76.138H186.085C185.96 75.3333 185.643 74.7213 185.133 74.302C184.623 73.8827 184.028 73.673 183.348 73.673ZM196.132 72.5V81H194.653V73.911H190.25V81H188.771V72.5H196.132ZM203.806 72.5H205.387L201.919 81.527C201.557 82.4903 201.047 83.2213 200.389 83.72C199.732 84.23 198.984 84.4567 198.145 84.4V83.023C199.188 83.1023 199.953 82.5357 200.44 81.323L200.576 81.017L196.887 72.5H198.451L201.358 79.164L203.806 72.5ZM212.486 72.5V73.928H209.596V81H208.117V73.928H205.21V72.5H212.486ZM219.978 72.5H221.457V81H219.978V79.538C219.241 80.66 218.17 81.221 216.765 81.221C215.575 81.221 214.561 80.7903 213.722 79.929C212.883 79.0563 212.464 77.9967 212.464 76.75C212.464 75.5033 212.883 74.4493 213.722 73.588C214.561 72.7153 215.575 72.279 216.765 72.279C218.17 72.279 219.241 72.84 219.978 73.962V72.5ZM216.952 79.793C217.813 79.793 218.533 79.504 219.111 78.926C219.689 78.3367 219.978 77.6113 219.978 76.75C219.978 75.8887 219.689 75.169 219.111 74.591C218.533 74.0017 217.813 73.707 216.952 73.707C216.102 73.707 215.388 74.0017 214.81 74.591C214.232 75.169 213.943 75.8887 213.943 76.75C213.943 77.6113 214.232 78.3367 214.81 78.926C215.388 79.504 216.102 79.793 216.952 79.793ZM230.328 79.589H231.722V83.278H230.26V81H223.188V72.5H224.667V79.589H228.849V72.5H230.328V79.589ZM238.959 72.5H240.149V81H238.687V75.033L233.978 81H232.788V72.5H234.25V78.467L238.959 72.5ZM248.249 72.5V81H246.787V77.94H245.546L243.166 81H241.364L243.846 77.855C243.211 77.6963 242.695 77.379 242.299 76.903C241.902 76.427 241.704 75.8717 241.704 75.237C241.704 74.455 241.981 73.8033 242.537 73.282C243.092 72.7607 243.789 72.5 244.628 72.5H248.249ZM244.679 76.614H246.787V73.877H244.679C244.259 73.877 243.902 74.0017 243.608 74.251C243.313 74.5003 243.166 74.8347 243.166 75.254C243.166 75.662 243.313 75.9907 243.608 76.24C243.902 76.4893 244.259 76.614 244.679 76.614ZM174.783 96.631C175.656 96.9937 176.092 97.651 176.092 98.603C176.092 99.3057 175.854 99.8837 175.378 100.337C174.913 100.779 174.245 101 173.372 101H169.122V92.5H173.032C173.882 92.5 174.539 92.7153 175.004 93.146C175.469 93.5653 175.701 94.1207 175.701 94.812C175.701 95.628 175.395 96.2343 174.783 96.631ZM172.964 93.826H170.567V96.053H172.964C173.825 96.053 174.256 95.6733 174.256 94.914C174.256 94.1887 173.825 93.826 172.964 93.826ZM173.287 99.657C173.718 99.657 174.046 99.555 174.273 99.351C174.511 99.147 174.63 98.858 174.63 98.484C174.63 98.1327 174.511 97.8607 174.273 97.668C174.046 97.464 173.718 97.362 173.287 97.362H170.567V99.657H173.287ZM184.216 92.5H185.695V101H184.216V99.538C183.48 100.66 182.409 101.221 181.003 101.221C179.813 101.221 178.799 100.79 177.96 99.929C177.122 99.0563 176.702 97.9967 176.702 96.75C176.702 95.5033 177.122 94.4493 177.96 93.588C178.799 92.7153 179.813 92.279 181.003 92.279C182.409 92.279 183.48 92.84 184.216 93.962V92.5ZM181.19 99.793C182.052 99.793 182.771 99.504 183.349 98.926C183.927 98.3367 184.216 97.6113 184.216 96.75C184.216 95.8887 183.927 95.169 183.349 94.591C182.771 94.0017 182.052 93.707 181.19 93.707C180.34 93.707 179.626 94.0017 179.048 94.591C178.47 95.169 178.181 95.8887 178.181 96.75C178.181 97.6113 178.47 98.3367 179.048 98.926C179.626 99.504 180.34 99.793 181.19 99.793ZM197.881 101H196.147L192.968 96.971V101H191.506V96.971L188.327 101H186.61L190.163 96.614L186.78 92.5H188.497L191.506 96.257V92.5H192.968V96.257L195.977 92.5H197.711L194.311 96.614L197.881 101ZM204.668 92.5H206.147V101H204.668V97.447H200.265V101H198.786V92.5H200.265V96.036H204.668V92.5ZM208.926 97.43C209.073 98.1893 209.419 98.7787 209.963 99.198C210.518 99.6173 211.198 99.827 212.003 99.827C213.125 99.827 213.941 99.4133 214.451 98.586L215.709 99.3C214.881 100.581 213.635 101.221 211.969 101.221C210.62 101.221 209.521 100.802 208.671 99.963C207.832 99.113 207.413 98.042 207.413 96.75C207.413 95.4693 207.826 94.404 208.654 93.554C209.481 92.704 210.552 92.279 211.867 92.279C213.113 92.279 214.128 92.721 214.91 93.605C215.703 94.4777 216.1 95.5317 216.1 96.767C216.1 96.9823 216.083 97.2033 216.049 97.43H208.926ZM211.867 93.673C211.073 93.673 210.416 93.8997 209.895 94.353C209.373 94.795 209.05 95.39 208.926 96.138H214.604C214.479 95.3333 214.162 94.7213 213.652 94.302C213.142 93.8827 212.547 93.673 211.867 93.673ZM218.31 97.43C218.458 98.1893 218.803 98.7787 219.347 99.198C219.903 99.6173 220.583 99.827 221.387 99.827C222.509 99.827 223.325 99.4133 223.835 98.586L225.093 99.3C224.266 100.581 223.019 101.221 221.353 101.221C220.005 101.221 218.905 100.802 218.055 99.963C217.217 99.113 216.797 98.042 216.797 96.75C216.797 95.4693 217.211 94.404 218.038 93.554C218.866 92.704 219.937 92.279 221.251 92.279C222.498 92.279 223.512 92.721 224.294 93.605C225.088 94.4777 225.484 95.5317 225.484 96.767C225.484 96.9823 225.467 97.2033 225.433 97.43H218.31ZM221.251 93.673C220.458 93.673 219.801 93.8997 219.279 94.353C218.758 94.795 218.435 95.39 218.31 96.138H223.988C223.864 95.3333 223.546 94.7213 223.036 94.302C222.526 93.8827 221.931 93.673 221.251 93.673ZM237.724 99.589H238.897V103.278H237.435V101H231.06V103.278H229.598V99.589H230.635C231.179 98.841 231.451 97.7927 231.451 96.444V92.5H237.724V99.589ZM232.318 99.589H236.262V93.877H232.913V96.444C232.913 97.7133 232.715 98.7617 232.318 99.589ZM240.686 97.43C240.834 98.1893 241.179 98.7787 241.723 99.198C242.279 99.6173 242.959 99.827 243.763 99.827C244.885 99.827 245.701 99.4133 246.211 98.586L247.469 99.3C246.642 100.581 245.395 101.221 243.729 101.221C242.381 101.221 241.281 100.802 240.431 99.963C239.593 99.113 239.173 98.042 239.173 96.75C239.173 95.4693 239.587 94.404 240.414 93.554C241.242 92.704 242.313 92.279 243.627 92.279C244.874 92.279 245.888 92.721 246.67 93.605C247.464 94.4777 247.86 95.5317 247.86 96.767C247.86 96.9823 247.843 97.2033 247.809 97.43H240.686ZM243.627 93.673C242.834 93.673 242.177 93.8997 241.655 94.353C241.134 94.795 240.811 95.39 240.686 96.138H246.364C246.24 95.3333 245.922 94.7213 245.412 94.302C244.902 93.8827 244.307 93.673 243.627 93.673ZM254.933 92.5H256.412V101H254.933V97.447H250.53V101H249.051V92.5H250.53V96.036H254.933V92.5ZM259.19 97.43C259.337 98.1893 259.683 98.7787 260.227 99.198C260.782 99.6173 261.462 99.827 262.267 99.827C263.389 99.827 264.205 99.4133 264.715 98.586L265.973 99.3C265.146 100.581 263.899 101.221 262.233 101.221C260.884 101.221 259.785 100.802 258.935 99.963C258.096 99.113 257.677 98.042 257.677 96.75C257.677 95.4693 258.091 94.404 258.918 93.554C259.745 92.704 260.816 92.279 262.131 92.279C263.378 92.279 264.392 92.721 265.174 93.605C265.967 94.4777 266.364 95.5317 266.364 96.767C266.364 96.9823 266.347 97.2033 266.313 97.43H259.19ZM262.131 93.673C261.338 93.673 260.68 93.8997 260.159 94.353C259.638 94.795 259.315 95.39 259.19 96.138H264.868C264.743 95.3333 264.426 94.7213 263.916 94.302C263.406 93.8827 262.811 93.673 262.131 93.673ZM273.13 92.5V93.928H269.033V101H267.554V92.5H273.13Z" fill="#142251"/>
<g filter="url(#filter0_i_2671_68)">
<rect x="20" y="49" width="122" height="51" rx="25.5" fill="white"/>
<rect width="17.8319" height="17.8319" transform="translate(31.9622 65.584)" fill="white"/>
<g filter="url(#filter1_i_2671_68)">
<path d="M41.0638 67.2556C41.3452 67.2556 41.6025 67.4146 41.7283 67.6663L43.6444 71.4986L47.8577 72.1114C48.1375 72.1521 48.37 72.3481 48.4574 72.6171C48.5447 72.886 48.4719 73.1812 48.2694 73.3786L45.203 76.3684L45.8928 80.5839C45.9384 80.8625 45.8221 81.1428 45.5928 81.3074C45.3635 81.4721 45.0607 81.4925 44.8113 81.3602L41.0638 79.3717L37.3163 81.3602C37.0669 81.4925 36.7641 81.4721 36.5347 81.3074C36.3054 81.1428 36.1892 80.8625 36.2348 80.5839L36.9246 76.3684L33.8581 73.3786C33.6557 73.1812 33.5828 72.886 33.6702 72.6171C33.7576 72.3481 33.99 72.1521 34.2699 72.1114L38.4831 71.4986L40.3992 67.6663C40.5251 67.4146 40.7823 67.2556 41.0638 67.2556ZM41.0638 78.2148L39.5414 74.116C39.4327 74.3334 39.3217 72.8782 39.081 72.9132L42.8849 75.5091L38.239 75.5746C38.4126 75.7439 38.1875 74.4339 38.1483 74.6732L40.7851 75.3663L41.8734 75.5233C42.0912 75.4078 41.1942 77.7587 41.412 77.8743L44.1843 79.3453L42.6063 78.8526C42.5671 78.6132 41.0395 78.5103 41.2132 78.3411L46.1545 73.3653L40.7851 78.772C40.5445 78.7371 41.6005 76.0052 41.4918 75.7877L41.0638 78.2148Z" fill="#142251"/>
</g>
<rect width="17.8319" height="17.8319" transform="translate(52.0232 65.584)" fill="white"/>
<g filter="url(#filter2_i_2671_68)">
<path d="M61.1248 67.2556C61.4062 67.2556 61.6635 67.4146 61.7894 67.6663L63.7055 71.4986L67.9187 72.1114C68.1986 72.1521 68.431 72.3481 68.5184 72.6171C68.6058 72.886 68.5329 73.1812 68.3305 73.3786L65.264 76.3684L65.9538 80.5839C65.9994 80.8625 65.8832 81.1428 65.6538 81.3074C65.4245 81.4721 65.1217 81.4925 64.8723 81.3602L61.1248 79.3717L57.3773 81.3602C57.1279 81.4925 56.8251 81.4721 56.5958 81.3074C56.3664 81.1428 56.2502 80.8625 56.2958 80.5839L56.9856 76.3684L53.9192 73.3786C53.7167 73.1812 53.6438 72.886 53.7312 72.6171C53.8186 72.3481 54.0511 72.1521 54.3309 72.1114L58.5441 71.4986L60.4602 67.6663C60.5861 67.4146 60.8434 67.2556 61.1248 67.2556ZM61.1248 78.2148L59.6024 74.116C59.4937 74.3334 59.3827 72.8782 59.1421 72.9132L62.9459 75.5091L58.3 75.5746C58.4736 75.7439 58.2485 74.4339 58.2093 74.6732L60.8462 75.3663L61.9345 75.5233C62.1523 75.4078 61.2553 77.7587 61.4731 77.8743L64.2454 79.3453L62.6673 78.8526C62.6281 78.6132 61.1006 78.5103 61.2742 78.3411L66.2155 73.3653L60.8462 78.772C60.6056 78.7371 61.6615 76.0052 61.5528 75.7877L61.1248 78.2148Z" fill="#142251"/>
</g>
<rect width="17.8319" height="17.8319" transform="translate(72.084 65.584)" fill="white"/>
<g filter="url(#filter3_i_2671_68)">
<path d="M81.1856 67.2556C81.467 67.2556 81.7243 67.4146 81.8502 67.6663L83.7663 71.4986L87.9795 72.1114C88.2593 72.1521 88.4918 72.3481 88.5792 72.6171C88.6666 72.886 88.5937 73.1812 88.3912 73.3786L85.3248 76.3684L86.0146 80.5839C86.0602 80.8625 85.944 81.1428 85.7146 81.3074C85.4853 81.4721 85.1825 81.4925 84.9331 81.3602L81.1856 79.3717L77.4381 81.3602C77.1887 81.4925 76.8859 81.4721 76.6566 81.3074C76.4272 81.1428 76.311 80.8625 76.3566 80.5839L77.0464 76.3684L73.9799 73.3786C73.7775 73.1812 73.7046 72.886 73.792 72.6171C73.8794 72.3481 74.1119 72.1521 74.3917 72.1114L78.6049 71.4986L80.521 67.6663C80.6469 67.4146 80.9042 67.2556 81.1856 67.2556ZM81.1856 78.2148L79.6632 74.116C79.5545 74.3334 79.4435 72.8782 79.2029 72.9132L83.0067 75.5091L78.3608 75.5746C78.5344 75.7439 78.3093 74.4339 78.2701 74.6732L80.907 75.3663L81.9953 75.5233C82.2131 75.4078 81.3161 77.7587 81.5338 77.8743L84.3062 79.3453L82.7281 78.8526C82.6889 78.6132 81.1614 78.5103 81.335 78.3411L86.2763 73.3653L80.907 78.772C80.6664 78.7371 81.7223 76.0052 81.6136 75.7877L81.1856 78.2148Z" fill="#142251"/>
</g>
<rect width="17.8319" height="17.8319" transform="translate(92.145 65.584)" fill="white"/>
<g filter="url(#filter4_i_2671_68)">
<path d="M101.247 67.2556C101.528 67.2556 101.785 67.4146 101.911 67.6663L103.827 71.4986L108.041 72.1114C108.32 72.1521 108.553 72.3481 108.64 72.6171C108.728 72.886 108.655 73.1812 108.452 73.3786L105.386 76.3684L106.076 80.5839C106.121 80.8625 106.005 81.1428 105.776 81.3074C105.546 81.4721 105.244 81.4925 104.994 81.3602L101.247 79.3717L97.4991 81.3602C97.2498 81.4925 96.9469 81.4721 96.7176 81.3074C96.4883 81.1428 96.372 80.8625 96.4176 80.5839L97.1074 76.3684L94.041 73.3786C93.8385 73.1812 93.7657 72.886 93.853 72.6171C93.9404 72.3481 94.1729 72.1521 94.4527 72.1114L98.666 71.4986L100.582 67.6663C100.708 67.4146 100.965 67.2556 101.247 67.2556ZM101.247 78.2148L99.7243 74.116C99.6155 74.3334 99.5045 72.8782 99.2639 72.9132L103.068 75.5091L98.4218 75.5746C98.5955 75.7439 98.3703 74.4339 98.3312 74.6732L100.968 75.3663L102.056 75.5233C102.274 75.4078 101.377 77.7587 101.595 77.8743L104.367 79.3453L102.789 78.8526C102.75 78.6132 101.222 78.5103 101.396 78.3411L106.337 73.3653L100.968 78.772C100.727 78.7371 101.783 76.0052 101.675 75.7877L101.247 78.2148Z" fill="#142251"/>
</g>
<rect width="17.8319" height="17.8319" transform="translate(112.206 65.584)" fill="white"/>
<g filter="url(#filter5_i_2671_68)">
<path d="M121.307 67.2556C121.589 67.2556 121.846 67.4146 121.972 67.6663L123.888 71.4986L128.101 72.1114C128.381 72.1521 128.614 72.3481 128.701 72.6171C128.788 72.886 128.716 73.1812 128.513 73.3786L125.447 76.3684L126.136 80.5839C126.182 80.8625 126.066 81.1428 125.836 81.3074C125.607 81.4721 125.304 81.4925 125.055 81.3602L121.307 79.3717L117.56 81.3602C117.311 81.4925 117.008 81.4721 116.778 81.3074C116.549 81.1428 116.433 80.8625 116.478 80.5839L117.168 76.3684L114.102 73.3786C113.899 73.1812 113.826 72.886 113.914 72.6171C114.001 72.3481 114.234 72.1521 114.514 72.1114L118.727 71.4986L120.643 67.6663C120.769 67.4146 121.026 67.2556 121.307 67.2556ZM121.307 78.2148L119.785 74.116C119.676 74.3334 119.565 72.8782 119.325 72.9132L123.129 75.5091L118.483 75.5746C118.656 75.7439 118.431 74.4339 118.392 74.6732L121.029 75.3663L122.117 75.5233C122.335 75.4078 121.438 77.7587 121.656 77.8743L124.428 79.3453L122.85 78.8526C122.811 78.6132 121.283 78.5103 121.457 78.3411L126.398 73.3653L121.029 78.772C120.788 78.7371 121.844 76.0052 121.735 75.7877L121.307 78.2148Z" fill="#142251"/>
</g>
</g>
<defs>
<filter id="filter0_i_2671_68" x="20" y="49" width="122" height="51" filterUnits="userSpaceOnUse" color-interpolation-filters="sRGB">
<feFlood flood-opacity="0" result="BackgroundImageFix"/>
<feBlend mode="normal" in="SourceGraphic" in2="BackgroundImageFix" result="shape"/>
<feColorMatrix in="SourceAlpha" type="matrix" values="0 0 0 0 0 0 0 0 0 0 0 0 0 0 0 0 0 0 127 0" result="hardAlpha"/>
<feOffset/>
<feGaussianBlur stdDeviation="3.34348"/>
<feComposite in2="hardAlpha" operator="arithmetic" k2="-1" k3="1"/>
<feColorMatrix type="matrix" values="0 0 0 0 0.894118 0 0 0 0 0.905882 0 0 0 0 0.945098 0 0 0 1 0"/>
<feBlend mode="normal" in2="shape" result="effect1_innerShadow_2671_68"/>
</filter>
<filter id="filter1_i_2671_68" x="33.6338" y="67.2556" width="14.8599" height="14.1912" filterUnits="userSpaceOnUse" color-interpolation-filters="sRGB">
<feFlood flood-opacity="0" result="BackgroundImageFix"/>
<feBlend mode="normal" in="SourceGraphic" in2="BackgroundImageFix" result="shape"/>
<feColorMatrix in="SourceAlpha" type="matrix" values="0 0 0 0 0 0 0 0 0 0 0 0 0 0 0 0 0 0 127 0" result="hardAlpha"/>
<feOffset/>
<feGaussianBlur stdDeviation="1.11449"/>
<feComposite in2="hardAlpha" operator="arithmetic" k2="-1" k3="1"/>
<feColorMatrix type="matrix" values="0 0 0 0 1 0 0 0 0 1 0 0 0 0 1 0 0 0 1 0"/>
<feBlend mode="normal" in2="shape" result="effect1_innerShadow_2671_68"/>
</filter>
<filter id="filter2_i_2671_68" x="53.6948" y="67.2556" width="14.8599" height="14.1912" filterUnits="userSpaceOnUse" color-interpolation-filters="sRGB">
<feFlood flood-opacity="0" result="BackgroundImageFix"/>
<feBlend mode="normal" in="SourceGraphic" in2="BackgroundImageFix" result="shape"/>
<feColorMatrix in="SourceAlpha" type="matrix" values="0 0 0 0 0 0 0 0 0 0 0 0 0 0 0 0 0 0 127 0" result="hardAlpha"/>
<feOffset/>
<feGaussianBlur stdDeviation="1.11449"/>
<feComposite in2="hardAlpha" operator="arithmetic" k2="-1" k3="1"/>
<feColorMatrix type="matrix" values="0 0 0 0 1 0 0 0 0 1 0 0 0 0 1 0 0 0 1 0"/>
<feBlend mode="normal" in2="shape" result="effect1_innerShadow_2671_68"/>
</filter>
<filter id="filter3_i_2671_68" x="73.7556" y="67.2556" width="14.8599" height="14.1912" filterUnits="userSpaceOnUse" color-interpolation-filters="sRGB">
<feFlood flood-opacity="0" result="BackgroundImageFix"/>
<feBlend mode="normal" in="SourceGraphic" in2="BackgroundImageFix" result="shape"/>
<feColorMatrix in="SourceAlpha" type="matrix" values="0 0 0 0 0 0 0 0 0 0 0 0 0 0 0 0 0 0 127 0" result="hardAlpha"/>
<feOffset/>
<feGaussianBlur stdDeviation="1.11449"/>
<feComposite in2="hardAlpha" operator="arithmetic" k2="-1" k3="1"/>
<feColorMatrix type="matrix" values="0 0 0 0 1 0 0 0 0 1 0 0 0 0 1 0 0 0 1 0"/>
<feBlend mode="normal" in2="shape" result="effect1_innerShadow_2671_68"/>
</filter>
<filter id="filter4_i_2671_68" x="93.8167" y="67.2556" width="14.8599" height="14.1912" filterUnits="userSpaceOnUse" color-interpolation-filters="sRGB">
<feFlood flood-opacity="0" result="BackgroundImageFix"/>
<feBlend mode="normal" in="SourceGraphic" in2="BackgroundImageFix" result="shape"/>
<feColorMatrix in="SourceAlpha" type="matrix" values="0 0 0 0 0 0 0 0 0 0 0 0 0 0 0 0 0 0 127 0" result="hardAlpha"/>
<feOffset/>
<feGaussianBlur stdDeviation="1.11449"/>
<feComposite in2="hardAlpha" operator="arithmetic" k2="-1" k3="1"/>
<feColorMatrix type="matrix" values="0 0 0 0 1 0 0 0 0 1 0 0 0 0 1 0 0 0 1 0"/>
<feBlend mode="normal" in2="shape" result="effect1_innerShadow_2671_68"/>
</filter>
<filter id="filter5_i_2671_68" x="113.877" y="67.2556" width="14.8599" height="14.1912" filterUnits="userSpaceOnUse" color-interpolation-filters="sRGB">
<feFlood flood-opacity="0" result="BackgroundImageFix"/>
<feBlend mode="normal" in="SourceGraphic" in2="BackgroundImageFix" result="shape"/>
<feColorMatrix in="SourceAlpha" type="matrix" values="0 0 0 0 0 0 0 0 0 0 0 0 0 0 0 0 0 0 127 0" result="hardAlpha"/>
<feOffset/>
<feGaussianBlur stdDeviation="1.11449"/>
<feComposite in2="hardAlpha" operator="arithmetic" k2="-1" k3="1"/>
<feColorMatrix type="matrix" values="0 0 0 0 1 0 0 0 0 1 0 0 0 0 1 0 0 0 1 0"/>
<feBlend mode="normal" in2="shape" result="effect1_innerShadow_2671_68"/>
</filter>
</defs>
</svg>
