<svg width="335" height="160" viewBox="0 0 335 160" fill="none" xmlns="http://www.w3.org/2000/svg">
<rect y="0.0200195" width="335" height="150" rx="10" fill="#F3F6F9"/>
<path opacity="0.5" d="M197.327 80.9114C199.893 91.3234 193.403 103.074 180.488 113.676C167.605 124.253 148.464 133.562 126.117 139.069C103.77 144.575 82.495 145.225 66.1726 141.844C49.8103 138.455 38.6046 131.065 36.039 120.653C33.4735 110.241 39.963 98.4913 52.8777 87.8886C65.761 77.3116 84.9019 68.0025 107.249 62.4961C129.596 56.9896 150.871 56.3402 167.193 59.7207C183.556 63.1094 194.761 70.4994 197.327 80.9114Z" stroke="#989EB1"/>
<path d="M38.0308 15.6814C38.4628 15.8654 38.7988 16.1334 39.0388 16.4854C39.2788 16.8374 39.3988 17.2534 39.3988 17.7334C39.3988 18.4534 39.1268 19.0414 38.5828 19.4974C38.0468 19.9534 37.3348 20.1814 36.4468 20.1814C35.6388 20.1814 34.9868 20.0014 34.4908 19.6414C34.0028 19.2814 33.6588 18.8174 33.4588 18.2494L34.4068 17.7094C34.6548 18.6534 35.3348 19.1254 36.4468 19.1254C37.0308 19.1254 37.4828 18.9974 37.8028 18.7414C38.1228 18.4774 38.2828 18.1294 38.2828 17.6974C38.2828 17.2654 38.1308 16.9174 37.8268 16.6534C37.5308 16.3894 37.1148 16.2574 36.5788 16.2574H35.5948V15.2374H36.3028C36.8148 15.2374 37.2228 15.1134 37.5268 14.8654C37.8308 14.6094 37.9828 14.2774 37.9828 13.8694C37.9828 13.4694 37.8388 13.1454 37.5508 12.8974C37.2708 12.6414 36.8788 12.5134 36.3748 12.5134C35.4468 12.5134 34.8268 12.9254 34.5148 13.7494L33.5788 13.2094C34.0828 12.0494 35.0148 11.4694 36.3748 11.4694C37.1828 11.4694 37.8348 11.6934 38.3308 12.1414C38.8348 12.5894 39.0868 13.1574 39.0868 13.8454C39.0868 14.6454 38.7348 15.2574 38.0308 15.6814ZM45.1042 14.0254H46.1482V20.0254H45.1042V18.9934C44.5842 19.7854 43.8282 20.1814 42.8362 20.1814C41.9962 20.1814 41.2802 19.8774 40.6882 19.2694C40.0962 18.6534 39.8002 17.9054 39.8002 17.0254C39.8002 16.1454 40.0962 15.4014 40.6882 14.7934C41.2802 14.1774 41.9962 13.8694 42.8362 13.8694C43.8282 13.8694 44.5842 14.2654 45.1042 15.0574V14.0254ZM42.9682 19.1734C43.5762 19.1734 44.0842 18.9694 44.4922 18.5614C44.9002 18.1454 45.1042 17.6334 45.1042 17.0254C45.1042 16.4174 44.9002 15.9094 44.4922 15.5014C44.0842 15.0854 43.5762 14.8774 42.9682 14.8774C42.3682 14.8774 41.8642 15.0854 41.4562 15.5014C41.0482 15.9094 40.8442 16.4174 40.8442 17.0254C40.8442 17.6334 41.0482 18.1454 41.4562 18.5614C41.8642 18.9694 42.3682 19.1734 42.9682 19.1734ZM53.25 14.0254V20.0254H52.23V15.6694L50.322 18.7414H50.19L48.282 15.6694V20.0254H47.25V14.0254H48.366L50.25 17.0614L52.134 14.0254H53.25ZM55.0957 17.5054C55.1997 18.0414 55.4437 18.4574 55.8277 18.7534C56.2197 19.0494 56.6997 19.1974 57.2677 19.1974C58.0597 19.1974 58.6357 18.9054 58.9957 18.3214L59.8837 18.8254C59.2997 19.7294 58.4197 20.1814 57.2437 20.1814C56.2917 20.1814 55.5157 19.8854 54.9157 19.2934C54.3237 18.6934 54.0277 17.9374 54.0277 17.0254C54.0277 16.1214 54.3197 15.3694 54.9037 14.7694C55.4877 14.1694 56.2437 13.8694 57.1717 13.8694C58.0517 13.8694 58.7677 14.1814 59.3197 14.8054C59.8797 15.4214 60.1597 16.1654 60.1597 17.0374C60.1597 17.1894 60.1477 17.3454 60.1237 17.5054H55.0957ZM57.1717 14.8534C56.6117 14.8534 56.1477 15.0134 55.7797 15.3334C55.4117 15.6454 55.1837 16.0654 55.0957 16.5934H59.1037C59.0157 16.0254 58.7917 15.5934 58.4317 15.2974C58.0717 15.0014 57.6517 14.8534 57.1717 14.8534ZM65.1094 14.0254V15.0334H63.0694V20.0254H62.0254V15.0334H59.9734V14.0254H65.1094ZM70.6203 20.0254H69.3243L66.5883 17.1814V20.0254H65.5443V14.0254H66.5883V16.6774L69.1803 14.0254H70.5243L67.6563 16.9294L70.6203 20.0254ZM75.5284 14.0254H76.5724V20.0254H75.5284V18.9934C75.0084 19.7854 74.2524 20.1814 73.2604 20.1814C72.4204 20.1814 71.7044 19.8774 71.1124 19.2694C70.5204 18.6534 70.2244 17.9054 70.2244 17.0254C70.2244 16.1454 70.5204 15.4014 71.1124 14.7934C71.7044 14.1774 72.4204 13.8694 73.2604 13.8694C74.2524 13.8694 75.0084 14.2654 75.5284 15.0574V14.0254ZM73.3924 19.1734C74.0004 19.1734 74.5084 18.9694 74.9164 18.5614C75.3244 18.1454 75.5284 17.6334 75.5284 17.0254C75.5284 16.4174 75.3244 15.9094 74.9164 15.5014C74.5084 15.0854 74.0004 14.8774 73.3924 14.8774C72.7924 14.8774 72.2884 15.0854 71.8804 15.5014C71.4724 15.9094 71.2684 16.4174 71.2684 17.0254C71.2684 17.6334 71.4724 18.1454 71.8804 18.5614C72.2884 18.9694 72.7924 19.1734 73.3924 19.1734Z" fill="#142251"/>
<path d="M21.2986 11.742C20.8552 11.2407 20.0545 11.2098 19.5207 11.7629L14.2949 17.178C14.1598 17.318 14.1598 17.4964 14.2949 17.6364C14.4301 17.7765 14.6022 17.7765 14.7373 17.6364L19.0599 13.1573C19.3119 12.8963 19.7204 12.8963 19.9723 13.1573C20.2243 13.4184 20.2243 13.8417 19.9723 14.1028L15.6497 18.5819C15.0107 19.2441 14.0216 19.2441 13.3825 18.5819C12.7435 17.9197 12.7435 16.8947 13.3825 16.2325L18.6083 10.8175C19.6196 9.76957 21.2631 9.73547 22.2402 10.8277C23.2417 11.8763 23.2712 13.5709 22.2212 14.5802L16.1014 20.9217C14.6881 22.3861 12.4732 22.3861 11.0599 20.9217C9.64669 19.4573 9.64669 17.1621 11.0599 15.6977L16.2857 10.2827C16.5377 10.0216 16.9462 10.0216 17.1981 10.2827C17.4501 10.5438 17.4501 10.967 17.1981 11.2281L11.9723 16.6432C11.063 17.5854 11.063 19.034 11.9723 19.9763C12.8817 20.9185 14.2796 20.9185 15.189 19.9763L21.318 13.6253C21.3246 13.6185 21.3313 13.6118 21.3382 13.6052C21.822 13.1457 21.8518 12.316 21.318 11.7629C21.3114 11.7561 21.3049 11.7491 21.2986 11.742Z" fill="#142251"/>
<path d="M25.593 57.12C26.6923 57.12 27.6047 57.4884 28.33 58.225C29.0667 58.9504 29.435 59.857 29.435 60.945C29.435 62.0217 29.0667 62.9284 28.33 63.665C27.6047 64.4017 26.6923 64.77 25.593 64.77H22.856V69.02H21.275V57.12H25.593ZM25.593 63.291C26.2503 63.291 26.7943 63.07 27.225 62.628C27.6557 62.1747 27.871 61.6137 27.871 60.945C27.871 60.265 27.6557 59.704 27.225 59.262C26.7943 58.82 26.2503 58.599 25.593 58.599H22.856V63.291H25.593ZM37.1999 60.52H38.6789V69.02H37.1999V67.558C36.4632 68.68 35.3922 69.241 33.9869 69.241C32.7969 69.241 31.7825 68.8104 30.9439 67.949C30.1052 67.0764 29.6859 66.0167 29.6859 64.77C29.6859 63.5234 30.1052 62.4694 30.9439 61.608C31.7825 60.7354 32.7969 60.299 33.9869 60.299C35.3922 60.299 36.4632 60.86 37.1999 61.982V60.52ZM34.1739 67.813C35.0352 67.813 35.7549 67.524 36.3329 66.946C36.9109 66.3567 37.1999 65.6314 37.1999 64.77C37.1999 63.9087 36.9109 63.189 36.3329 62.611C35.7549 62.0217 35.0352 61.727 34.1739 61.727C33.3239 61.727 32.6099 62.0217 32.0319 62.611C31.4539 63.189 31.1649 63.9087 31.1649 64.77C31.1649 65.6314 31.4539 66.3567 32.0319 66.946C32.6099 67.524 33.3239 67.813 34.1739 67.813ZM44.4387 69.241C43.1807 69.241 42.1437 68.8274 41.3277 68C40.5117 67.1727 40.1037 66.1074 40.1037 64.804C40.1037 63.3534 40.3134 62.237 40.7327 61.455C41.1634 60.673 42.036 59.9647 43.3507 59.33C43.5887 59.2167 43.9117 59.0694 44.3197 58.888C44.739 58.7067 45.045 58.5707 45.2377 58.48C45.4304 58.378 45.6457 58.2477 45.8837 58.089C46.1217 57.919 46.2974 57.7377 46.4107 57.545C46.5354 57.341 46.626 57.1087 46.6827 56.848L47.8727 57.528C47.8387 57.7094 47.7934 57.8794 47.7367 58.038C47.68 58.1854 47.595 58.3327 47.4817 58.48C47.3797 58.616 47.289 58.735 47.2097 58.837C47.1304 58.939 46.9944 59.0524 46.8017 59.177C46.6204 59.2904 46.4844 59.3754 46.3937 59.432C46.3144 59.4887 46.15 59.5737 45.9007 59.687C45.6627 59.8004 45.4984 59.8797 45.4077 59.925C45.3284 59.959 45.1414 60.0384 44.8467 60.163C44.552 60.2764 44.3707 60.35 44.3027 60.384C43.532 60.7127 42.9654 61.047 42.6027 61.387C42.2514 61.727 41.9964 62.1577 41.8377 62.679C42.2004 62.2257 42.6537 61.8914 43.1977 61.676C43.7417 61.4607 44.2857 61.353 44.8297 61.353C45.895 61.353 46.796 61.7157 47.5327 62.441C48.2807 63.1664 48.6547 64.1014 48.6547 65.246C48.6547 66.402 48.258 67.3597 47.4647 68.119C46.6714 68.867 45.6627 69.241 44.4387 69.241ZM42.4497 67.065C42.9824 67.5637 43.6454 67.813 44.4387 67.813C45.232 67.813 45.8837 67.5694 46.3937 67.082C46.915 66.5947 47.1757 65.9827 47.1757 65.246C47.1757 64.4867 46.9264 63.869 46.4277 63.393C45.9404 62.9057 45.2944 62.662 44.4897 62.662C43.7644 62.662 43.107 62.8944 42.5177 63.359C41.9397 63.8124 41.6507 64.413 41.6507 65.161C41.6507 65.9317 41.917 66.5664 42.4497 67.065ZM57.0592 67.949C56.1865 68.8104 55.1269 69.241 53.8802 69.241C52.6335 69.241 51.5739 68.8104 50.7012 67.949C49.8399 67.0877 49.4092 66.028 49.4092 64.77C49.4092 63.512 49.8399 62.4524 50.7012 61.591C51.5739 60.7297 52.6335 60.299 53.8802 60.299C55.1269 60.299 56.1865 60.7297 57.0592 61.591C57.9319 62.4524 58.3682 63.512 58.3682 64.77C58.3682 66.028 57.9319 67.0877 57.0592 67.949ZM53.8802 67.796C54.7302 67.796 55.4442 67.507 56.0222 66.929C56.6002 66.351 56.8892 65.6314 56.8892 64.77C56.8892 63.9087 56.6002 63.189 56.0222 62.611C55.4442 62.033 54.7302 61.744 53.8802 61.744C53.0415 61.744 52.3332 62.033 51.7552 62.611C51.1772 63.189 50.8882 63.9087 50.8882 64.77C50.8882 65.6314 51.1772 66.351 51.7552 66.929C52.3332 67.507 53.0415 67.796 53.8802 67.796ZM65.7637 60.52V61.948H62.8737V69.02H61.3947V61.948H58.4877V60.52H65.7637ZM73.4258 60.52H74.9048V69.02H73.4258V67.558C72.6892 68.68 71.6182 69.241 70.2128 69.241C69.0228 69.241 68.0085 68.8104 67.1698 67.949C66.3312 67.0764 65.9118 66.0167 65.9118 64.77C65.9118 63.5234 66.3312 62.4694 67.1698 61.608C68.0085 60.7354 69.0228 60.299 70.2128 60.299C71.6182 60.299 72.6892 60.86 73.4258 61.982V60.52ZM70.3998 67.813C71.2612 67.813 71.9808 67.524 72.5588 66.946C73.1368 66.3567 73.4258 65.6314 73.4258 64.77C73.4258 63.9087 73.1368 63.189 72.5588 62.611C71.9808 62.0217 71.2612 61.727 70.3998 61.727C69.5498 61.727 68.8358 62.0217 68.2578 62.611C67.6798 63.189 67.3908 63.9087 67.3908 64.77C67.3908 65.6314 67.6798 66.3567 68.2578 66.946C68.8358 67.524 69.5498 67.813 70.3998 67.813ZM77.8426 65.45C77.99 66.2094 78.3356 66.7987 78.8796 67.218C79.435 67.6374 80.115 67.847 80.9196 67.847C82.0416 67.847 82.8576 67.4334 83.3676 66.606L84.6256 67.32C83.7983 68.6007 82.5516 69.241 80.8856 69.241C79.537 69.241 78.4376 68.8217 77.5876 67.983C76.749 67.133 76.3296 66.062 76.3296 64.77C76.3296 63.4894 76.7433 62.424 77.5706 61.574C78.398 60.724 79.469 60.299 80.7836 60.299C82.0303 60.299 83.0446 60.741 83.8266 61.625C84.62 62.4977 85.0166 63.5517 85.0166 64.787C85.0166 65.0024 84.9996 65.2234 84.9656 65.45H77.8426ZM80.7836 61.693C79.9903 61.693 79.333 61.9197 78.8116 62.373C78.2903 62.815 77.9673 63.41 77.8426 64.158H83.5206C83.396 63.3534 83.0786 62.7414 82.5686 62.322C82.0586 61.9027 81.4636 61.693 80.7836 61.693ZM94.8768 60.52V69.02H93.4318V62.849L90.7288 67.201H90.5418L87.8388 62.849V69.02H86.3768V60.52H87.9578L90.6268 64.821L93.2958 60.52H94.8768ZM107.029 60.52V61.948H104.139V69.02H102.66V61.948H99.7526V60.52H107.029ZM114.827 67.949C113.954 68.8104 112.894 69.241 111.648 69.241C110.401 69.241 109.341 68.8104 108.469 67.949C107.607 67.0877 107.177 66.028 107.177 64.77C107.177 63.512 107.607 62.4524 108.469 61.591C109.341 60.7297 110.401 60.299 111.648 60.299C112.894 60.299 113.954 60.7297 114.827 61.591C115.699 62.4524 116.136 63.512 116.136 64.77C116.136 66.028 115.699 67.0877 114.827 67.949ZM111.648 67.796C112.498 67.796 113.212 67.507 113.79 66.929C114.368 66.351 114.657 65.6314 114.657 64.77C114.657 63.9087 114.368 63.189 113.79 62.611C113.212 62.033 112.498 61.744 111.648 61.744C110.809 61.744 110.101 62.033 109.523 62.611C108.945 63.189 108.656 63.9087 108.656 64.77C108.656 65.6314 108.945 66.351 109.523 66.929C110.101 67.507 110.809 67.796 111.648 67.796ZM124.329 60.52V69.02H122.85V61.948H119.501V65.416C119.501 66.81 119.218 67.7847 118.651 68.34C118.096 68.884 117.308 69.1107 116.288 69.02V67.626C116.866 67.7054 117.297 67.5807 117.58 67.252C117.875 66.912 118.022 66.2887 118.022 65.382V60.52H124.329ZM129.817 63.58C130.667 63.58 131.37 63.835 131.925 64.345C132.492 64.8437 132.775 65.4954 132.775 66.3C132.775 67.1047 132.492 67.762 131.925 68.272C131.37 68.7707 130.667 69.02 129.817 69.02H126.23V60.52H127.709V63.58H129.817ZM129.817 67.643C130.237 67.643 130.588 67.524 130.871 67.286C131.166 67.0367 131.313 66.708 131.313 66.3C131.313 65.892 131.166 65.5634 130.871 65.314C130.588 65.0647 130.237 64.94 129.817 64.94H127.709V67.643H129.817ZM141.216 69.02H139.38L135.504 64.991V69.02H134.025V60.52H135.504V64.277L139.176 60.52H141.08L137.017 64.634L141.216 69.02ZM148.645 67.949C147.773 68.8104 146.713 69.241 145.466 69.241C144.22 69.241 143.16 68.8104 142.287 67.949C141.426 67.0877 140.995 66.028 140.995 64.77C140.995 63.512 141.426 62.4524 142.287 61.591C143.16 60.7297 144.22 60.299 145.466 60.299C146.713 60.299 147.773 60.7297 148.645 61.591C149.518 62.4524 149.954 63.512 149.954 64.77C149.954 66.028 149.518 67.0877 148.645 67.949ZM145.466 67.796C146.316 67.796 147.03 67.507 147.608 66.929C148.186 66.351 148.475 65.6314 148.475 64.77C148.475 63.9087 148.186 63.189 147.608 62.611C147.03 62.033 146.316 61.744 145.466 61.744C144.628 61.744 143.919 62.033 143.341 62.611C142.763 63.189 142.474 63.9087 142.474 64.77C142.474 65.6314 142.763 66.351 143.341 66.929C143.919 67.507 144.628 67.796 145.466 67.796ZM28.483 80.52V89.02H27.004V81.931H22.601V89.02H21.122V80.52H28.483ZM37.5683 87.949C36.6956 88.8104 35.636 89.241 34.3893 89.241C33.1426 89.241 32.083 88.8104 31.2103 87.949C30.349 87.0877 29.9183 86.028 29.9183 84.77C29.9183 83.512 30.349 82.4524 31.2103 81.591C32.083 80.7297 33.1426 80.299 34.3893 80.299C35.636 80.299 36.6956 80.7297 37.5683 81.591C38.441 82.4524 38.8773 83.512 38.8773 84.77C38.8773 86.028 38.441 87.0877 37.5683 87.949ZM34.3893 87.796C35.2393 87.796 35.9533 87.507 36.5313 86.929C37.1093 86.351 37.3983 85.6314 37.3983 84.77C37.3983 83.9087 37.1093 83.189 36.5313 82.611C35.9533 82.033 35.2393 81.744 34.3893 81.744C33.5506 81.744 32.8423 82.033 32.2643 82.611C31.6863 83.189 31.3973 83.9087 31.3973 84.77C31.3973 85.6314 31.6863 86.351 32.2643 86.929C32.8423 87.507 33.5506 87.796 34.3893 87.796ZM48.8829 80.299C50.0729 80.299 51.0872 80.7354 51.9259 81.608C52.7645 82.4694 53.1839 83.5234 53.1839 84.77C53.1839 86.0167 52.7645 87.0764 51.9259 87.949C51.0872 88.8104 50.0729 89.241 48.8829 89.241C47.4775 89.241 46.4065 88.68 45.6699 87.558V92.42H44.1909V80.52H45.6699V81.982C46.4065 80.86 47.4775 80.299 48.8829 80.299ZM48.6959 87.813C49.5459 87.813 50.2599 87.524 50.8379 86.946C51.4159 86.3567 51.7049 85.6314 51.7049 84.77C51.7049 83.9087 51.4159 83.189 50.8379 82.611C50.2599 82.0217 49.5459 81.727 48.6959 81.727C47.8345 81.727 47.1149 82.0217 46.5369 82.611C45.9589 83.189 45.6699 83.9087 45.6699 84.77C45.6699 85.6314 45.9589 86.3567 46.5369 86.946C47.1149 87.524 47.8345 87.813 48.6959 87.813ZM55.6457 85.45C55.793 86.2094 56.1387 86.7987 56.6827 87.218C57.238 87.6374 57.918 87.847 58.7227 87.847C59.8447 87.847 60.6607 87.4334 61.1707 86.606L62.4287 87.32C61.6013 88.6007 60.3547 89.241 58.6887 89.241C57.34 89.241 56.2407 88.8217 55.3907 87.983C54.552 87.133 54.1327 86.062 54.1327 84.77C54.1327 83.4894 54.5463 82.424 55.3737 81.574C56.201 80.724 57.272 80.299 58.5867 80.299C59.8333 80.299 60.8477 80.741 61.6297 81.625C62.423 82.4977 62.8197 83.5517 62.8197 84.787C62.8197 85.0024 62.8027 85.2234 62.7687 85.45H55.6457ZM58.5867 81.693C57.7933 81.693 57.136 81.9197 56.6147 82.373C56.0933 82.815 55.7703 83.41 55.6457 84.158H61.3237C61.199 83.3534 60.8817 82.7414 60.3717 82.322C59.8617 81.9027 59.2667 81.693 58.5867 81.693ZM71.3708 89.02H69.5348L65.6588 84.991V89.02H64.1798V80.52H65.6588V84.277L69.3308 80.52H71.2348L67.1718 84.634L71.3708 89.02ZM78.7999 87.949C77.9273 88.8104 76.8676 89.241 75.6209 89.241C74.3743 89.241 73.3146 88.8104 72.4419 87.949C71.5806 87.0877 71.1499 86.028 71.1499 84.77C71.1499 83.512 71.5806 82.4524 72.4419 81.591C73.3146 80.7297 74.3743 80.299 75.6209 80.299C76.8676 80.299 77.9273 80.7297 78.7999 81.591C79.6726 82.4524 80.1089 83.512 80.1089 84.77C80.1089 86.028 79.6726 87.0877 78.7999 87.949ZM75.6209 87.796C76.4709 87.796 77.1849 87.507 77.7629 86.929C78.3409 86.351 78.6299 85.6314 78.6299 84.77C78.6299 83.9087 78.3409 83.189 77.7629 82.611C77.1849 82.033 76.4709 81.744 75.6209 81.744C74.7823 81.744 74.0739 82.033 73.4959 82.611C72.9179 83.189 72.6289 83.9087 72.6289 84.77C72.6289 85.6314 72.9179 86.351 73.4959 86.929C74.0739 87.507 74.7823 87.796 75.6209 87.796ZM90.0125 80.52V89.02H88.5675V82.849L85.8645 87.201H85.6775L82.9745 82.849V89.02H81.5125V80.52H83.0935L85.7625 84.821L88.4315 80.52H90.0125ZM92.9673 85.45C93.1147 86.2094 93.4603 86.7987 94.0043 87.218C94.5597 87.6374 95.2397 87.847 96.0443 87.847C97.1663 87.847 97.9823 87.4334 98.4923 86.606L99.7503 87.32C98.923 88.6007 97.6763 89.241 96.0103 89.241C94.6617 89.241 93.5623 88.8217 92.7123 87.983C91.8737 87.133 91.4543 86.062 91.4543 84.77C91.4543 83.4894 91.868 82.424 92.6953 81.574C93.5227 80.724 94.5937 80.299 95.9083 80.299C97.155 80.299 98.1693 80.741 98.9513 81.625C99.7447 82.4977 100.141 83.5517 100.141 84.787C100.141 85.0024 100.124 85.2234 100.09 85.45H92.9673ZM95.9083 81.693C95.115 81.693 94.4577 81.9197 93.9363 82.373C93.415 82.815 93.092 83.41 92.9673 84.158H98.6453C98.5207 83.3534 98.2033 82.7414 97.6933 82.322C97.1833 81.9027 96.5883 81.693 95.9083 81.693ZM107.383 80.52H108.862V89.02H107.383V85.467H102.98V89.02H101.501V80.52H102.98V84.056H107.383V80.52ZM118.084 87.609H119.257V91.298H117.795V89.02H111.42V91.298H109.958V87.609H110.995C111.539 86.861 111.811 85.8127 111.811 84.464V80.52H118.084V87.609ZM112.678 87.609H116.622V81.897H113.273V84.464C113.273 85.7334 113.074 86.7817 112.678 87.609ZM127.217 80.52H128.696V89.02H127.217V87.558C126.48 88.68 125.409 89.241 124.004 89.241C122.814 89.241 121.8 88.8104 120.961 87.949C120.122 87.0764 119.703 86.0167 119.703 84.77C119.703 83.5234 120.122 82.4694 120.961 81.608C121.8 80.7354 122.814 80.299 124.004 80.299C125.409 80.299 126.48 80.86 127.217 81.982V80.52ZM124.191 87.813C125.052 87.813 125.772 87.524 126.35 86.946C126.928 86.3567 127.217 85.6314 127.217 84.77C127.217 83.9087 126.928 83.189 126.35 82.611C125.772 82.0217 125.052 81.727 124.191 81.727C123.341 81.727 122.627 82.0217 122.049 82.611C121.471 83.189 121.182 83.9087 121.182 84.77C121.182 85.6314 121.471 86.3567 122.049 86.946C122.627 87.524 123.341 87.813 124.191 87.813ZM137.737 87.609H139.131V91.298H137.669V89.02H130.597V80.52H132.076V87.609H136.258V80.52H137.737V87.609ZM146.538 80.52H147.728V89.02H146.266V83.053L141.557 89.02H140.367V80.52H141.829V86.487L146.538 80.52ZM155.81 80.52H157V89.02H155.538V83.053L150.829 89.02H149.639V80.52H151.101V86.487L155.81 80.52ZM28.296 107.949C27.4233 108.81 26.3637 109.241 25.117 109.241C23.8703 109.241 22.8107 108.81 21.938 107.949C21.0767 107.088 20.646 106.028 20.646 104.77C20.646 103.512 21.0767 102.452 21.938 101.591C22.8107 100.73 23.8703 100.299 25.117 100.299C26.3637 100.299 27.4233 100.73 28.296 101.591C29.1687 102.452 29.605 103.512 29.605 104.77C29.605 106.028 29.1687 107.088 28.296 107.949ZM25.117 107.796C25.967 107.796 26.681 107.507 27.259 106.929C27.837 106.351 28.126 105.631 28.126 104.77C28.126 103.909 27.837 103.189 27.259 102.611C26.681 102.033 25.967 101.744 25.117 101.744C24.2783 101.744 23.57 102.033 22.992 102.611C22.414 103.189 22.125 103.909 22.125 104.77C22.125 105.631 22.414 106.351 22.992 106.929C23.57 107.507 24.2783 107.796 25.117 107.796ZM37.0005 100.52V101.948H34.1105V109.02H32.6315V101.948H29.7245V100.52H37.0005ZM41.7646 100.69L41.5606 97.12H43.0396L42.8356 100.69H41.7646ZM44.3146 100.69L44.1106 97.12H45.5896L45.3856 100.69H44.3146ZM50.6515 109.241C49.3709 109.241 48.3055 108.816 47.4555 107.966C46.6055 107.105 46.1805 106.039 46.1805 104.77C46.1805 103.501 46.6055 102.441 47.4555 101.591C48.3055 100.73 49.3709 100.299 50.6515 100.299C51.4902 100.299 52.2439 100.503 52.9125 100.911C53.5812 101.308 54.0799 101.846 54.4085 102.526L53.1675 103.24C52.9522 102.787 52.6179 102.424 52.1645 102.152C51.7225 101.88 51.2182 101.744 50.6515 101.744C49.8015 101.744 49.0875 102.033 48.5095 102.611C47.9429 103.189 47.6595 103.909 47.6595 104.77C47.6595 105.62 47.9429 106.334 48.5095 106.912C49.0875 107.49 49.8015 107.779 50.6515 107.779C51.2182 107.779 51.7282 107.649 52.1815 107.388C52.6349 107.116 52.9805 106.753 53.2185 106.3L54.4765 107.031C54.1139 107.7 53.5925 108.238 52.9125 108.646C52.2325 109.043 51.4789 109.241 50.6515 109.241ZM61.2744 104.651C62.1471 105.014 62.5834 105.671 62.5834 106.623C62.5834 107.326 62.3454 107.904 61.8694 108.357C61.4047 108.799 60.7361 109.02 59.8634 109.02H55.6134V100.52H59.5234C60.3734 100.52 61.0307 100.735 61.4954 101.166C61.9601 101.585 62.1924 102.141 62.1924 102.832C62.1924 103.648 61.8864 104.254 61.2744 104.651ZM59.4554 101.846H57.0584V104.073H59.4554C60.3167 104.073 60.7474 103.693 60.7474 102.934C60.7474 102.209 60.3167 101.846 59.4554 101.846ZM59.7784 107.677C60.2091 107.677 60.5377 107.575 60.7644 107.371C61.0024 107.167 61.1214 106.878 61.1214 106.504C61.1214 106.153 61.0024 105.881 60.7644 105.688C60.5377 105.484 60.2091 105.382 59.7784 105.382H57.0584V107.677H59.7784ZM71.0138 107.949C70.1411 108.81 69.0815 109.241 67.8348 109.241C66.5881 109.241 65.5285 108.81 64.6558 107.949C63.7945 107.088 63.3638 106.028 63.3638 104.77C63.3638 103.512 63.7945 102.452 64.6558 101.591C65.5285 100.73 66.5881 100.299 67.8348 100.299C69.0815 100.299 70.1411 100.73 71.0138 101.591C71.8865 102.452 72.3228 103.512 72.3228 104.77C72.3228 106.028 71.8865 107.088 71.0138 107.949ZM67.8348 107.796C68.6848 107.796 69.3988 107.507 69.9768 106.929C70.5548 106.351 70.8438 105.631 70.8438 104.77C70.8438 103.909 70.5548 103.189 69.9768 102.611C69.3988 102.033 68.6848 101.744 67.8348 101.744C66.9961 101.744 66.2878 102.033 65.7098 102.611C65.1318 103.189 64.8428 103.909 64.8428 104.77C64.8428 105.631 65.1318 106.351 65.7098 106.929C66.2878 107.507 66.9961 107.796 67.8348 107.796ZM79.8974 100.52H81.0874V109.02H79.6254V103.053L74.9164 109.02H73.7264V100.52H75.1884V106.487L79.8974 100.52ZM90.3767 109.02H88.6427L86.2627 105.807L83.8657 109.02H82.1317L85.3957 104.651L82.3187 100.52H84.0697L86.2627 103.478L88.4557 100.52H90.1897L87.1297 104.634L90.3767 109.02ZM91.3057 100.69L91.1017 97.12H92.5807L92.3767 100.69H91.3057ZM93.8557 100.69L93.6517 97.12H95.1307L94.9267 100.69H93.8557Z" fill="#142251"/>
<path opacity="0.1" d="M0 33.02L335 33.02" stroke="#142251"/>
<path d="M308.293 134.607C307.902 134.216 307.902 133.583 308.293 133.192L318.192 123.293C318.583 122.902 319.216 122.902 319.607 123.293C319.997 123.683 319.997 124.317 319.607 124.707L309.707 134.607C309.317 134.997 308.683 134.997 308.293 134.607ZM313.243 136.728C312.852 136.337 312.852 135.704 313.243 135.314L320.314 128.243C320.704 127.852 321.337 127.852 321.728 128.243C322.118 128.633 322.118 129.266 321.728 129.657L314.657 136.728C314.266 137.118 313.633 137.118 313.243 136.728ZM318.192 138.849C317.802 138.459 317.802 137.826 318.192 137.435L322.435 133.192C322.826 132.802 323.459 132.802 323.849 133.192C324.24 133.583 324.24 134.216 323.849 134.607L319.607 138.849C319.216 139.24 318.583 139.24 318.192 138.849Z" fill="#142251" fill-opacity="0.44"/>
<path d="M316.188 12.2083C316.439 11.9573 316.846 11.9573 317.097 12.2083L320.5 15.6109L323.903 12.2083C324.154 11.9573 324.561 11.9573 324.812 12.2083C325.063 12.4594 325.063 12.8664 324.812 13.1174L321.409 16.52L324.812 19.9226C325.063 20.1736 325.063 20.5807 324.812 20.8317C324.561 21.0828 324.154 21.0828 323.903 20.8317L320.5 17.4292L317.097 20.8317C316.846 21.0828 316.439 21.0828 316.188 20.8317C315.937 20.5807 315.937 20.1736 316.188 19.9226L319.591 16.52L316.188 13.1174C315.937 12.8664 315.937 12.4594 316.188 12.2083Z" fill="#142251"/>
<path d="M281.6 10.2316C281.882 9.94951 282.34 9.94951 282.622 10.2316L284.788 12.3982C285.071 12.6803 285.071 13.1376 284.788 13.4196L278.288 19.9196C278.153 20.055 277.969 20.1311 277.778 20.1311H275.611C275.212 20.1311 274.889 19.8078 274.889 19.4089V17.2422C274.889 17.0507 274.965 16.867 275.1 16.7316L281.6 10.2316ZM276.333 17.5414V18.6867H277.479L283.256 12.9089L282.111 11.7636L276.333 17.5414ZM272 12.9089C272 12.1112 272.647 11.4645 273.444 11.4645H277.056C277.454 11.4645 277.778 11.7878 277.778 12.1867C277.778 12.5856 277.454 12.9089 277.056 12.9089H273.444V21.5756H282.111V17.9645C282.111 17.5656 282.434 17.2422 282.833 17.2422C283.232 17.2422 283.556 17.5656 283.556 17.9645V21.5756C283.556 22.3733 282.909 23.02 282.111 23.02H273.444C272.647 23.02 272 22.3733 272 21.5756V12.9089Z" fill="#142251"/>
</svg>
