<svg width="335" height="150" viewBox="0 0 335 150" fill="none" xmlns="http://www.w3.org/2000/svg">
<rect width="335" height="150" rx="10" fill="#F3F6F9"/>
<path d="M177.911 49.1V61H176.33V50.596H170.856V61H169.275V49.1H177.911ZM184.663 52.279C185.853 52.279 186.868 52.7153 187.706 53.588C188.545 54.4493 188.964 55.5033 188.964 56.75C188.964 57.9967 188.545 59.0563 187.706 59.929C186.868 60.7903 185.853 61.221 184.663 61.221C183.258 61.221 182.187 60.66 181.45 59.538V64.4H179.971V52.5H181.45V53.962C182.187 52.84 183.258 52.279 184.663 52.279ZM184.476 59.793C185.326 59.793 186.04 59.504 186.618 58.926C187.196 58.3367 187.485 57.6113 187.485 56.75C187.485 55.8887 187.196 55.169 186.618 54.591C186.04 54.0017 185.326 53.707 184.476 53.707C183.615 53.707 182.895 54.0017 182.317 54.591C181.739 55.169 181.45 55.8887 181.45 56.75C181.45 57.6113 181.739 58.3367 182.317 58.926C182.895 59.504 183.615 59.793 184.476 59.793ZM196.56 52.5H197.75V61H196.288V55.033L191.579 61H190.389V52.5H191.851V58.467L196.56 52.5ZM208.162 52.5V61H206.717V54.829L204.014 59.181H203.827L201.124 54.829V61H199.662V52.5H201.243L203.912 56.801L206.581 52.5H208.162ZM211.116 57.43C211.264 58.1893 211.609 58.7787 212.153 59.198C212.709 59.6173 213.389 59.827 214.193 59.827C215.315 59.827 216.131 59.4133 216.641 58.586L217.899 59.3C217.072 60.5807 215.825 61.221 214.159 61.221C212.811 61.221 211.711 60.8017 210.861 59.963C210.023 59.113 209.603 58.042 209.603 56.75C209.603 55.4693 210.017 54.404 210.844 53.554C211.672 52.704 212.743 52.279 214.057 52.279C215.304 52.279 216.318 52.721 217.1 53.605C217.894 54.4777 218.29 55.5317 218.29 56.767C218.29 56.9823 218.273 57.2033 218.239 57.43H211.116ZM214.057 53.673C213.264 53.673 212.607 53.8997 212.085 54.353C211.564 54.795 211.241 55.39 211.116 56.138H216.794C216.67 55.3333 216.352 54.7213 215.842 54.302C215.332 53.8827 214.737 53.673 214.057 53.673ZM225.533 52.5H227.012V61H225.533V57.447H221.13V61H219.651V52.5H221.13V56.036H225.533V52.5ZM235.281 52.5V61H233.819V57.94H232.578L230.198 61H228.396L230.878 57.855C230.243 57.6963 229.727 57.379 229.331 56.903C228.934 56.427 228.736 55.8717 228.736 55.237C228.736 54.455 229.013 53.8033 229.569 53.282C230.124 52.7607 230.821 52.5 231.66 52.5H235.281ZM231.711 56.614H233.819V53.877H231.711C231.291 53.877 230.934 54.0017 230.64 54.251C230.345 54.5003 230.198 54.8347 230.198 55.254C230.198 55.662 230.345 55.9907 230.64 56.24C230.934 56.4893 231.291 56.614 231.711 56.614ZM238.219 57.43C238.367 58.1893 238.712 58.7787 239.256 59.198C239.812 59.6173 240.492 59.827 241.296 59.827C242.418 59.827 243.234 59.4133 243.744 58.586L245.002 59.3C244.175 60.5807 242.928 61.221 241.262 61.221C239.914 61.221 238.814 60.8017 237.964 59.963C237.126 59.113 236.706 58.042 236.706 56.75C236.706 55.4693 237.12 54.404 237.947 53.554C238.775 52.704 239.846 52.279 241.16 52.279C242.407 52.279 243.421 52.721 244.203 53.605C244.997 54.4777 245.393 55.5317 245.393 56.767C245.393 56.9823 245.376 57.2033 245.342 57.43H238.219ZM241.16 53.673C240.367 53.673 239.71 53.8997 239.188 54.353C238.667 54.795 238.344 55.39 238.219 56.138H243.897C243.773 55.3333 243.455 54.7213 242.945 54.302C242.435 53.8827 241.84 53.673 241.16 53.673ZM255.254 52.5V61H253.809V54.829L251.106 59.181H250.919L248.216 54.829V61H246.754V52.5H248.335L251.004 56.801L253.673 52.5H255.254ZM176.16 72.5H177.639V81H176.16V79.538C175.423 80.66 174.352 81.221 172.947 81.221C171.757 81.221 170.743 80.7903 169.904 79.929C169.065 79.0563 168.646 77.9967 168.646 76.75C168.646 75.5033 169.065 74.4493 169.904 73.588C170.743 72.7153 171.757 72.279 172.947 72.279C174.352 72.279 175.423 72.84 176.16 73.962V72.5ZM173.134 79.793C173.995 79.793 174.715 79.504 175.293 78.926C175.871 78.3367 176.16 77.6113 176.16 76.75C176.16 75.8887 175.871 75.169 175.293 74.591C174.715 74.0017 173.995 73.707 173.134 73.707C172.284 73.707 171.57 74.0017 170.992 74.591C170.414 75.169 170.125 75.8887 170.125 76.75C170.125 77.6113 170.414 78.3367 170.992 78.926C171.57 79.504 172.284 79.793 173.134 79.793ZM185.116 72.5V73.928H181.019V81H179.54V72.5H185.116ZM186.778 77.43C186.925 78.1893 187.271 78.7787 187.815 79.198C188.37 79.6173 189.05 79.827 189.855 79.827C190.977 79.827 191.793 79.4133 192.303 78.586L193.561 79.3C192.733 80.5807 191.487 81.221 189.821 81.221C188.472 81.221 187.373 80.8017 186.523 79.963C185.684 79.113 185.265 78.042 185.265 76.75C185.265 75.4693 185.678 74.404 186.506 73.554C187.333 72.704 188.404 72.279 189.719 72.279C190.965 72.279 191.98 72.721 192.762 73.605C193.555 74.4777 193.952 75.5317 193.952 76.767C193.952 76.9823 193.935 77.2033 193.901 77.43H186.778ZM189.719 73.673C188.925 73.673 188.268 73.8997 187.747 74.353C187.225 74.795 186.902 75.39 186.778 76.138H192.456C192.331 75.3333 192.014 74.7213 191.504 74.302C190.994 73.8827 190.399 73.673 189.719 73.673ZM201.194 72.5H202.673V81H201.194V77.447H196.791V81H195.312V72.5H196.791V76.036H201.194V72.5ZM210.908 72.5V73.928H208.018V81H206.539V73.928H203.632V72.5H210.908ZM215.527 81.221C214.247 81.221 213.181 80.796 212.331 79.946C211.481 79.0847 211.056 78.0193 211.056 76.75C211.056 75.4807 211.481 74.421 212.331 73.571C213.181 72.7097 214.247 72.279 215.527 72.279C216.366 72.279 217.12 72.483 217.788 72.891C218.457 73.2877 218.956 73.826 219.284 74.506L218.043 75.22C217.828 74.7667 217.494 74.404 217.04 74.132C216.598 73.86 216.094 73.724 215.527 73.724C214.677 73.724 213.963 74.013 213.385 74.591C212.819 75.169 212.535 75.8887 212.535 76.75C212.535 77.6 212.819 78.314 213.385 78.892C213.963 79.47 214.677 79.759 215.527 79.759C216.094 79.759 216.604 79.6287 217.057 79.368C217.511 79.096 217.856 78.7333 218.094 78.28L219.352 79.011C218.99 79.6797 218.468 80.218 217.788 80.626C217.108 81.0227 216.355 81.221 215.527 81.221ZM227.68 81H225.844L221.968 76.971V81H220.489V72.5H221.968V76.257L225.64 72.5H227.544L223.481 76.614L227.68 81ZM234.4 72.5H235.981L232.513 81.527C232.15 82.4903 231.64 83.2213 230.983 83.72C230.325 84.23 229.577 84.4567 228.739 84.4V83.023C229.781 83.1023 230.546 82.5357 231.034 81.323L231.17 81.017L227.481 72.5H229.045L231.952 79.164L234.4 72.5ZM244.305 72.279C245.551 72.279 246.605 72.7097 247.467 73.571C248.339 74.4323 248.776 75.492 248.776 76.75C248.776 78.008 248.339 79.0677 247.467 79.929C246.605 80.7903 245.551 81.221 244.305 81.221C243.183 81.221 242.214 80.864 241.398 80.15C240.582 79.436 240.094 78.535 239.936 77.447H238.355V81H236.876V72.5H238.355V76.036H239.936C240.094 74.948 240.582 74.0527 241.398 73.35C242.225 72.636 243.194 72.279 244.305 72.279ZM244.305 79.776C245.143 79.776 245.852 79.487 246.43 78.909C247.008 78.331 247.297 77.6113 247.297 76.75C247.297 75.8887 247.008 75.169 246.43 74.591C245.852 74.013 245.143 73.724 244.305 73.724C243.455 73.724 242.741 74.013 242.163 74.591C241.585 75.169 241.296 75.8887 241.296 76.75C241.296 77.6113 241.585 78.331 242.163 78.909C242.741 79.487 243.455 79.776 244.305 79.776ZM258.104 81.221C256.823 81.221 255.758 80.796 254.908 79.946C254.058 79.0847 253.633 78.0193 253.633 76.75C253.633 75.4807 254.058 74.421 254.908 73.571C255.758 72.7097 256.823 72.279 258.104 72.279C258.942 72.279 259.696 72.483 260.365 72.891C261.033 73.2877 261.532 73.826 261.861 74.506L260.62 75.22C260.404 74.7667 260.07 74.404 259.617 74.132C259.175 73.86 258.67 73.724 258.104 73.724C257.254 73.724 256.54 74.013 255.962 74.591C255.395 75.169 255.112 75.8887 255.112 76.75C255.112 77.6 255.395 78.314 255.962 78.892C256.54 79.47 257.254 79.759 258.104 79.759C258.67 79.759 259.18 79.6287 259.634 79.368C260.087 79.096 260.433 78.7333 260.671 78.28L261.929 79.011C261.566 79.6797 261.045 80.218 260.365 80.626C259.685 81.0227 258.931 81.221 258.104 81.221ZM263.97 77.43C264.117 78.1893 264.463 78.7787 265.007 79.198C265.562 79.6173 266.242 79.827 267.047 79.827C268.169 79.827 268.985 79.4133 269.495 78.586L270.753 79.3C269.925 80.5807 268.679 81.221 267.013 81.221C265.664 81.221 264.565 80.8017 263.715 79.963C262.876 79.113 262.457 78.042 262.457 76.75C262.457 75.4693 262.87 74.404 263.698 73.554C264.525 72.704 265.596 72.279 266.911 72.279C268.157 72.279 269.172 72.721 269.954 73.605C270.747 74.4777 271.144 75.5317 271.144 76.767C271.144 76.9823 271.127 77.2033 271.093 77.43H263.97ZM266.911 73.673C266.117 73.673 265.46 73.8997 264.939 74.353C264.417 74.795 264.094 75.39 263.97 76.138H269.648C269.523 75.3333 269.206 74.7213 268.696 74.302C268.186 73.8827 267.591 73.673 266.911 73.673ZM278.496 72.5V73.928H275.606V81H274.127V73.928H271.22V72.5H278.496ZM283.039 75.56C283.889 75.56 284.592 75.815 285.147 76.325C285.714 76.8237 285.997 77.4753 285.997 78.28C285.997 79.0847 285.714 79.742 285.147 80.252C284.592 80.7507 283.889 81 283.039 81H279.452V72.5H280.931V75.56H283.039ZM283.039 79.623C283.458 79.623 283.81 79.504 284.093 79.266C284.388 79.0167 284.535 78.688 284.535 78.28C284.535 77.872 284.388 77.5433 284.093 77.294C283.81 77.0447 283.458 76.92 283.039 76.92H280.931V79.623H283.039ZM176.483 92.5V101H175.004V93.911H170.601V101H169.122V92.5H176.483ZM185.568 99.929C184.696 100.79 183.636 101.221 182.389 101.221C181.143 101.221 180.083 100.79 179.21 99.929C178.349 99.0677 177.918 98.008 177.918 96.75C177.918 95.492 178.349 94.4323 179.21 93.571C180.083 92.7097 181.143 92.279 182.389 92.279C183.636 92.279 184.696 92.7097 185.568 93.571C186.441 94.4323 186.877 95.492 186.877 96.75C186.877 98.008 186.441 99.0677 185.568 99.929ZM182.389 99.776C183.239 99.776 183.953 99.487 184.531 98.909C185.109 98.331 185.398 97.6113 185.398 96.75C185.398 95.8887 185.109 95.169 184.531 94.591C183.953 94.013 183.239 93.724 182.389 93.724C181.551 93.724 180.842 94.013 180.264 94.591C179.686 95.169 179.397 95.8887 179.397 96.75C179.397 97.6113 179.686 98.331 180.264 98.909C180.842 99.487 181.551 99.776 182.389 99.776ZM197.852 96.631C198.725 96.9937 199.161 97.651 199.161 98.603C199.161 99.3057 198.923 99.8837 198.447 100.337C197.982 100.779 197.314 101 196.441 101H192.191V92.5H196.101C196.951 92.5 197.608 92.7153 198.073 93.146C198.538 93.5653 198.77 94.1207 198.77 94.812C198.77 95.628 198.464 96.2343 197.852 96.631ZM196.033 93.826H193.636V96.053H196.033C196.894 96.053 197.325 95.6733 197.325 94.914C197.325 94.1887 196.894 93.826 196.033 93.826ZM196.356 99.657C196.787 99.657 197.115 99.555 197.342 99.351C197.58 99.147 197.699 98.858 197.699 98.484C197.699 98.1327 197.58 97.8607 197.342 97.668C197.115 97.464 196.787 97.362 196.356 97.362H193.636V99.657H196.356ZM204.412 101.221C203.132 101.221 202.066 100.796 201.216 99.946C200.366 99.0847 199.941 98.0193 199.941 96.75C199.941 95.4807 200.366 94.421 201.216 93.571C202.066 92.7097 203.132 92.279 204.412 92.279C205.251 92.279 206.005 92.483 206.673 92.891C207.342 93.2877 207.841 93.826 208.169 94.506L206.928 95.22C206.713 94.7667 206.379 94.404 205.925 94.132C205.483 93.86 204.979 93.724 204.412 93.724C203.562 93.724 202.848 94.013 202.27 94.591C201.704 95.169 201.42 95.8887 201.42 96.75C201.42 97.6 201.704 98.314 202.27 98.892C202.848 99.47 203.562 99.759 204.412 99.759C204.979 99.759 205.489 99.6287 205.942 99.368C206.396 99.096 206.741 98.7333 206.979 98.28L208.237 99.011C207.875 99.6797 207.353 100.218 206.673 100.626C205.993 101.023 205.24 101.221 204.412 101.221ZM210.278 97.43C210.426 98.1893 210.771 98.7787 211.315 99.198C211.871 99.6173 212.551 99.827 213.355 99.827C214.477 99.827 215.293 99.4133 215.803 98.586L217.061 99.3C216.234 100.581 214.987 101.221 213.321 101.221C211.973 101.221 210.873 100.802 210.023 99.963C209.185 99.113 208.765 98.042 208.765 96.75C208.765 95.4693 209.179 94.404 210.006 93.554C210.834 92.704 211.905 92.279 213.219 92.279C214.466 92.279 215.48 92.721 216.262 93.605C217.056 94.4777 217.452 95.5317 217.452 96.767C217.452 96.9823 217.435 97.2033 217.401 97.43H210.278ZM213.219 93.673C212.426 93.673 211.769 93.8997 211.247 94.353C210.726 94.795 210.403 95.39 210.278 96.138H215.956C215.832 95.3333 215.514 94.7213 215.004 94.302C214.494 93.8827 213.899 93.673 213.219 93.673ZM227.312 92.5V101H225.867V94.829L223.164 99.181H222.977L220.274 94.829V101H218.812V92.5H220.393L223.062 96.801L225.731 92.5H227.312ZM235.163 92.5H236.744L233.276 101.527C232.914 102.49 232.404 103.221 231.746 103.72C231.089 104.23 230.341 104.457 229.502 104.4V103.023C230.545 103.102 231.31 102.536 231.797 101.323L231.933 101.017L228.244 92.5H229.808L232.715 99.164L235.163 92.5ZM250.049 92.5V101H248.604V94.829L245.901 99.181H245.714L243.011 94.829V101H241.549V92.5H243.13L245.799 96.801L248.468 92.5H250.049ZM258.138 92.5H259.328V101H257.866V95.033L253.157 101H251.967V92.5H253.429V98.467L258.138 92.5ZM265.931 92.279C267.121 92.279 268.136 92.7153 268.974 93.588C269.813 94.4493 270.232 95.5033 270.232 96.75C270.232 97.9967 269.813 99.0563 268.974 99.929C268.136 100.79 267.121 101.221 265.931 101.221C264.526 101.221 263.455 100.66 262.718 99.538V104.4H261.239V92.5H262.718V93.962C263.455 92.84 264.526 92.279 265.931 92.279ZM265.744 99.793C266.594 99.793 267.308 99.504 267.886 98.926C268.464 98.3367 268.753 97.6113 268.753 96.75C268.753 95.8887 268.464 95.169 267.886 94.591C267.308 94.0017 266.594 93.707 265.744 93.707C264.883 93.707 264.163 94.0017 263.585 94.591C263.007 95.169 262.718 95.8887 262.718 96.75C262.718 97.6113 263.007 98.3367 263.585 98.926C264.163 99.504 264.883 99.793 265.744 99.793ZM277.258 92.5H278.839L275.371 101.527C275.009 102.49 274.499 103.221 273.841 103.72C273.184 104.23 272.436 104.457 271.597 104.4V103.023C272.64 103.102 273.405 102.536 273.892 101.323L274.028 101.017L270.339 92.5H271.903L274.81 99.164L277.258 92.5Z" fill="#142251"/>
<rect x="20.5" y="17.8125" width="97" height="115.375" rx="11.5" fill="white" stroke="#989EB1"/>
<mask id="mask0_2671_66" style="mask-type:alpha" maskUnits="userSpaceOnUse" x="25" y="24" width="88" height="86">
<rect x="25.2031" y="24.0591" width="87.1593" height="85.173" rx="5" fill="#E4E7F1"/>
</mask>
<g mask="url(#mask0_2671_66)">
<path d="M58.6652 72.2449C60.3166 79.246 64.6151 94.8695 66.7942 102.716C67.5224 105.339 66.0565 108.068 63.4673 108.912C60.7214 109.808 57.7816 108.24 56.9947 105.461L48.3079 74.791C47.5475 71.8156 49.4512 68.8141 52.468 68.2341C55.2756 67.6939 58.0091 69.4621 58.6652 72.2449Z" fill="#F2F3F8"/>
<path d="M66.8058 102.684L74.2184 129.028L64.436 132.063L56.8869 105.123C56.1588 102.273 57.9828 99.3992 60.8707 98.8432C63.5598 98.3266 66.1773 100.019 66.8058 102.684Z" fill="#F2F3F8"/>
<path d="M45.2329 64.0577L40.0958 64.3075L35.0904 64.4054L25.3485 69.2715L27.9272 108.779L55.418 107.837L54.198 68.1783L45.2329 64.0577Z" fill="#F2F3F8"/>
<path d="M41.5679 75.2584C41.5789 75.5808 41.3268 75.8515 41.0045 75.8625C40.6815 75.8736 40.4114 75.6208 40.4003 75.2985C40.3893 74.9761 40.6415 74.7061 40.9644 74.695C41.2868 74.6839 41.5568 74.9361 41.5679 75.2584Z" fill="#F2F3F8"/>
<path d="M41.8042 82.1742C41.8153 82.4972 41.5631 82.7673 41.2408 82.7783C40.9178 82.7894 40.6477 82.5372 40.6367 82.2142C40.6256 81.8919 40.8778 81.6219 41.2008 81.6108C41.5231 81.5997 41.7931 81.8519 41.8042 82.1742Z" fill="#F2F3F8"/>
<path d="M42.0366 89.0887C42.0477 89.4117 41.7955 89.6818 41.4732 89.6929C41.1502 89.7039 40.8802 89.4518 40.8691 89.1288C40.858 88.8064 41.1102 88.5364 41.4332 88.5253C41.7555 88.5142 42.0256 88.7664 42.0366 89.0887Z" fill="#F2F3F8"/>
<path d="M42.2769 96.0033C42.2879 96.3263 42.0358 96.5964 41.7134 96.6074C41.3905 96.6185 41.1204 96.3663 41.1093 96.0433C41.0983 95.721 41.3504 95.4509 41.6734 95.4399C41.9957 95.4288 42.2658 95.681 42.2769 96.0033Z" fill="#F2F3F8"/>
<path d="M42.5132 102.919C42.5243 103.242 42.2721 103.512 41.9498 103.523C41.6268 103.534 41.3567 103.282 41.3457 102.959C41.3346 102.637 41.5868 102.367 41.9097 102.356C42.2321 102.345 42.5021 102.597 42.5132 102.919Z" fill="#F2F3F8"/>
<path d="M21.6093 73.5158C20.4412 80.6136 17.2226 96.4948 15.5866 104.472C15.0391 107.139 16.6891 109.761 19.3294 110.426C22.1301 111.131 24.9557 109.366 25.5511 106.54L32.1166 75.3468C32.6715 72.3263 30.5667 69.4621 27.5179 69.0901C24.6799 68.7434 22.0739 70.6947 21.6093 73.5158Z" fill="#F2F3F8"/>
<path d="M15.5761 104.441L9.98489 131.23L19.9522 133.588L25.6387 106.194C26.17 103.302 24.1541 100.559 21.2342 100.202C18.5161 99.8711 16.0206 101.739 15.5761 104.441Z" fill="#F2F3F8"/>
<path d="M57.1228 122.831L28.1617 123.824L27.9257 108.779L55.3136 107.84L57.1228 122.831Z" fill="#F2F3F8"/>
<path d="M47.3481 62.7648L44.7734 62.853L45.7641 64.9946L47.3481 62.7648Z" fill="#F2F3F8"/>
<path d="M41.193 70.4515C38.2192 70.5535 35.7253 68.2249 35.6233 65.251L35.2305 53.7905L46.0007 53.4213L46.3935 64.8818C46.4955 67.8557 44.1669 70.3496 41.193 70.4515Z" fill="#F2F3F8"/>
<path d="M42.3145 70.4138L38.9295 66.0322C38.4651 65.303 37.844 64.6815 37.108 64.208L35.7328 63.3242C35.4415 63.1373 35.0645 63.1319 34.7675 63.311L33.4383 64.1128C33.1318 64.298 32.9695 64.6432 33.0276 64.988L33.7288 69.1624C33.797 69.5741 34.3282 69.7234 34.6155 69.4123L37.478 66.3101C37.637 66.1371 37.9198 66.1496 38.0617 66.3358L42.3401 71.1601L42.3145 70.4138Z" fill="#F2F3F8"/>
<path d="M42.3108 70.4157L47.1517 62.9325C47.2868 62.7258 47.2928 62.7125 47.5467 62.8727L48.6796 63.5894C48.9414 63.7552 49.095 64.0896 49.0692 64.4379L49.3815 68.625C49.3508 69.0407 48.9274 69.2227 48.6736 68.9296L46.4055 66.0189C46.2649 65.8562 46.0352 65.8869 45.931 66.0808L42.3364 71.1619L42.3108 70.4157Z" fill="#F2F3F8"/>
<path d="M49.2676 38.9826C48.7818 37.3994 47.6926 35.1791 44.0203 33.6211C37.9539 31.0466 35.0117 37.0565 35.0117 37.0565C33.3967 36.9365 32.0793 37.5482 31.3659 39.1223C30.6974 40.597 31.4941 43.3 31.7442 44.242L33.2595 50.2203L34.2124 44.452C35.2123 40.645 36.8768 39.0514 36.8768 39.0514L42.3184 38.4209L48.4792 49.1497L49.3834 42.6451C49.4985 41.8197 49.5291 40.9822 49.4551 40.1522C49.4125 39.6719 49.3513 39.2555 49.2676 38.9826Z" fill="#F2F3F8"/>
<path d="M47.4295 47.8609C47.4295 47.8609 48.1177 46.6785 49.6392 47.1967C51.1593 47.7146 50.6062 51.3841 48.3694 51.9254C48.3694 51.9254 47.5679 52.1295 46.9162 51.5988C46.9162 51.5988 47.3776 48.886 47.4295 47.8609Z" fill="#F2F3F8"/>
<path d="M33.3927 48.3012C33.3927 48.3012 32.4647 47.1964 31.0585 47.833C29.5959 48.4965 30.3817 52.077 32.6495 52.4646C32.6495 52.4646 33.4629 52.6131 34.077 52.039C34.077 52.039 33.5145 49.3204 33.3927 48.3012Z" fill="#F2F3F8"/>
<path d="M31.4004 49.1094C31.4004 49.1094 32.6434 48.6458 33.5998 50.4683L31.4004 49.1094Z" fill="#F2F3F8"/>
<path d="M32.9576 49.5825C32.9576 49.5825 31.6135 50.3612 32.5561 51.4301L32.9576 49.5825Z" fill="#F2F3F8"/>
<path d="M48.7081 44.353C48.7841 46.5507 48.7256 51.1572 47.468 53.9332C46.2874 56.5391 44.236 57.9908 41.4876 58.1672C38.7399 58.3435 36.6537 57.353 34.8975 54.0832C33.1406 50.814 33.0178 44.9319 33.0178 44.9319C33.0178 44.9319 32.7486 37.0796 40.5092 36.8135C48.6833 36.5333 48.7081 44.353 48.7081 44.353Z" fill="#F2F3F8"/>
<path d="M43.5458 46.68L43.666 50.1859C43.6687 50.264 43.6563 50.3394 43.6313 50.4094C43.5331 50.682 43.2275 50.8216 42.945 50.7563L42.3365 50.6168" fill="#F2F3F8"/>
<path d="M40.178 47.0795C40.1919 47.4838 39.8756 47.8232 39.4706 47.8371C39.0662 47.851 38.7268 47.534 38.7129 47.1297C38.699 46.7253 39.016 46.3859 39.4203 46.372C39.8254 46.3581 40.1642 46.6751 40.178 47.0795Z" fill="#F2F3F8"/>
<path d="M40.8559 45.291L40.8349 43.8979L38.2546 44.0326C37.9286 44.0497 37.6188 44.1783 37.3759 44.3959L35.9251 45.7006L38.0902 45.3017L40.8559 45.291Z" fill="#F2F3F8"/>
<path d="M45.0134 46.9142C45.0273 47.3186 45.366 47.6355 45.7711 47.6216C46.1754 47.6078 46.4924 47.2683 46.4785 46.864C46.4647 46.4596 46.1252 46.1427 45.7208 46.1565C45.3158 46.1704 44.9995 46.5098 45.0134 46.9142Z" fill="#F2F3F8"/>
<path d="M44.4878 45.1657L44.4336 43.7744L46.4718 43.7248C46.7291 43.7185 46.9798 43.824 47.1816 44.0244L48.3902 45.2217L46.6653 44.9783L44.4878 45.1657Z" fill="#F2F3F8"/>
<path d="M42.552 52.0865C42.2447 52.2671 41.981 52.372 41.6846 52.4747C41.3946 52.572 41.0964 52.6416 40.7954 52.6839C40.1941 52.7736 39.5717 52.7232 39.005 52.5444C38.8877 52.508 38.8228 52.3831 38.8598 52.2658C38.8921 52.1624 38.993 52.0996 39.097 52.1117L39.1049 52.1127C39.6259 52.1724 40.1448 52.1149 40.6267 51.9464C40.8683 51.8645 41.1014 51.7607 41.3221 51.6364C41.5364 51.5163 41.767 51.3604 41.9182 51.2248C42.1382 51.025 42.4784 51.0413 42.6776 51.2614C42.8775 51.4814 42.8611 51.821 42.6411 52.0208C42.6145 52.0445 42.5814 52.0685 42.552 52.0865Z" fill="#F2F3F8"/>
<path d="M44.2115 51.1918C44.34 51.3093 44.5455 51.4463 44.7329 51.5488C44.9275 51.6549 45.1326 51.7417 45.3447 51.8068C45.7692 51.9409 46.225 51.9644 46.6748 51.8681L46.6826 51.8666C46.7952 51.8425 46.9059 51.9143 46.9293 52.0269C46.9503 52.1253 46.8982 52.2223 46.8095 52.2605C46.3208 52.4755 45.7592 52.5619 45.2141 52.503C44.9407 52.4765 44.6708 52.4212 44.4079 52.3396C44.1396 52.253 43.9025 52.1633 43.6232 52.0021C43.3812 51.865 43.2969 51.5569 43.4347 51.3149C43.5724 51.0735 43.8798 50.9886 44.1219 51.127C44.1531 51.1449 44.1852 51.1685 44.2115 51.1918Z" fill="#F2F3F8"/>
<path d="M42.1758 54.2507C42.1758 54.2507 42.9273 54.4923 43.9808 54.1889L42.1758 54.2507Z" fill="#F2F3F8"/>
<path d="M86.5187 71.291C88.1701 78.2922 92.4686 93.9156 94.6477 101.762C95.3759 104.385 93.91 107.114 91.3208 107.958C88.575 108.854 85.6351 107.286 84.8482 104.507L76.1614 73.8372C75.401 70.8618 77.3047 67.8602 80.3215 67.2803C83.1291 66.7401 85.8627 68.5083 86.5187 71.291Z" fill="#142251"/>
<path d="M94.6555 101.73L102.068 128.073L92.2856 131.109L84.7365 104.169C84.0084 101.319 85.8324 98.4448 88.7203 97.8888C91.4094 97.3723 94.0269 99.0649 94.6555 101.73Z" fill="#142251"/>
<path d="M73.0845 63.1033L67.9474 63.3531L62.9419 63.451L53.2001 68.3172L55.7787 107.825L83.2695 106.883L82.0496 67.2239L73.0845 63.1033Z" fill="#142251"/>
<path d="M69.4214 74.3048C69.4324 74.6271 69.1803 74.8979 68.858 74.9089C68.535 74.92 68.2649 74.6672 68.2539 74.3448C68.2428 74.0225 68.495 73.7525 68.8179 73.7414C69.1403 73.7303 69.4103 73.9825 69.4214 74.3048Z" fill="#142251"/>
<path d="M69.6597 81.2201C69.6707 81.5431 69.4186 81.8132 69.0963 81.8242C68.7733 81.8353 68.5032 81.5831 68.4921 81.2601C68.4811 80.9378 68.7333 80.6677 69.0562 80.6567C69.3786 80.6456 69.6486 80.8978 69.6597 81.2201Z" fill="#142251"/>
<path d="M69.894 88.1349C69.9051 88.4579 69.6529 88.7279 69.3306 88.739C69.0077 88.7501 68.7376 88.4979 68.7265 88.1749C68.7155 87.8526 68.9676 87.5825 69.2906 87.5714C69.6129 87.5604 69.883 87.8126 69.894 88.1349Z" fill="#142251"/>
<path d="M70.1304 95.0497C70.1414 95.3727 69.8893 95.6427 69.567 95.6538C69.244 95.6649 68.9739 95.4127 68.9628 95.0897C68.9518 94.7674 69.204 94.4973 69.5269 94.4863C69.8493 94.4752 70.1193 94.7274 70.1304 95.0497Z" fill="#142251"/>
<path d="M70.3706 101.965C70.3817 102.288 70.1295 102.558 69.8072 102.569C69.4842 102.58 69.2142 102.328 69.2031 102.005C69.192 101.682 69.4442 101.412 69.7672 101.401C70.0895 101.39 70.3596 101.642 70.3706 101.965Z" fill="#142251"/>
<path d="M49.4608 72.5612C48.2927 79.6591 45.0742 95.5402 43.4381 103.517C42.8907 106.184 44.5406 108.806 47.1809 109.471C49.9817 110.177 52.8072 108.411 53.4027 105.585L59.9682 74.3922C60.5231 71.3717 58.4182 68.5076 55.3695 68.1355C52.5315 67.7888 49.9254 69.7401 49.4608 72.5612Z" fill="#142251"/>
<path d="M43.4276 103.486L37.8365 130.275L47.8038 132.634L53.4903 105.24C54.0215 102.347 52.0056 99.6046 49.0858 99.2477C46.3676 98.9165 43.8722 100.784 43.4276 103.486Z" fill="#142251"/>
<path d="M84.9783 121.878L56.0172 122.87L55.7811 107.825L83.169 106.887L84.9783 121.878Z" fill="#142251"/>
<path d="M75.1977 61.8102L72.623 61.8984L73.6137 64.04L75.1977 61.8102Z" fill="#142251"/>
<path d="M69.0466 69.4979C66.0727 69.5998 63.5788 67.2712 63.4768 64.2974L63.084 52.8369L73.8542 52.4677L74.2471 63.9282C74.349 66.902 72.0204 69.396 69.0466 69.4979Z" fill="#142251"/>
<path d="M70.1661 69.4592L66.781 65.0776C66.3166 64.3484 65.6956 63.7269 64.9596 63.2534L63.5844 62.3696C63.2931 62.1827 62.9161 62.1773 62.6191 62.3564L61.2899 63.1582C60.9833 63.3434 60.8211 63.6886 60.8792 64.0334L61.5803 68.2078C61.6486 68.6195 62.1798 68.7688 62.4671 68.4578L65.3296 65.3555C65.4886 65.1826 65.7713 65.195 65.9133 65.3812L70.1917 70.2055L70.1661 69.4592Z" fill="#142251"/>
<path d="M70.1624 69.4611L75.0033 61.9779C75.1383 61.7712 75.1444 61.7579 75.3983 61.9181L76.5311 62.6348C76.793 62.8006 76.9466 63.135 76.9207 63.4833L77.2331 67.6704C77.2024 68.0861 76.779 68.2681 76.5251 67.975L74.257 65.0643C74.1165 64.9016 73.8868 64.9323 73.7826 65.1262L70.188 70.2073L70.1624 69.4611Z" fill="#142251"/>
<path d="M77.1172 38.0277C76.6314 36.4446 75.5422 34.2243 71.8699 32.6662C65.8035 30.0918 62.8613 36.1017 62.8613 36.1017C61.2463 35.9817 59.9289 36.5934 59.2155 38.1675C58.547 39.6422 59.3437 42.3452 59.5938 43.2871L61.1091 49.2655L62.062 43.4972C63.0619 39.6902 64.7264 38.0965 64.7264 38.0965L70.168 37.466L76.3288 48.1949L77.233 41.6902C77.3481 40.8648 77.3788 40.0274 77.3047 39.1974C77.2621 38.7171 77.2009 38.3006 77.1172 38.0277Z" fill="#142251"/>
<path d="M75.2791 46.9065C75.2791 46.9065 75.9673 45.7242 77.4888 46.2424C79.0089 46.7602 78.4558 50.4298 76.219 50.9711C76.219 50.9711 75.4175 51.1752 74.7658 50.6444C74.7658 50.6444 75.2272 47.9316 75.2791 46.9065Z" fill="#142251"/>
<path d="M61.2403 47.3464C61.2403 47.3464 60.3124 46.2416 58.9062 46.8781C57.4436 47.5416 58.2294 51.1222 60.4972 51.5097C60.4972 51.5097 61.3106 51.6582 61.9246 51.0842C61.9246 51.0842 61.3622 48.3655 61.2403 47.3464Z" fill="#142251"/>
<path d="M59.2539 48.1555C59.2539 48.1555 60.4969 47.692 61.4533 49.5145L59.2539 48.1555Z" fill="#142251"/>
<path d="M60.8072 48.6284C60.8072 48.6284 59.4632 49.4071 60.4057 50.476L60.8072 48.6284Z" fill="#142251"/>
<path d="M76.5617 43.3987C76.6376 45.5963 76.5791 50.2029 75.3215 52.9789C74.1409 55.5847 72.0895 57.0365 69.3411 57.2128C66.5934 57.3892 64.5072 56.3987 62.751 53.1288C60.9941 49.8597 60.8713 43.9776 60.8713 43.9776C60.8713 43.9776 60.6022 36.1252 68.3627 35.8592C76.5368 35.579 76.5617 43.3987 76.5617 43.3987Z" fill="#142251"/>
<path d="M71.3974 45.7259L71.5176 49.2318C71.5203 49.3099 71.5078 49.3853 71.4829 49.4553C71.3846 49.7279 71.0791 49.8675 70.7965 49.8022L70.1881 49.6627" fill="#142251"/>
<path d="M68.0315 46.1254C68.0454 46.5297 67.7291 46.8691 67.3241 46.883C66.9197 46.8969 66.5803 46.5799 66.5664 46.1756C66.5526 45.7712 66.8695 45.4318 67.2739 45.4179C67.6789 45.404 68.0177 45.721 68.0315 46.1254Z" fill="#142251"/>
<path d="M68.7075 44.3371L68.6865 42.944L66.1062 43.0788C65.7802 43.0958 65.4703 43.2244 65.2275 43.442L63.7767 44.7467L65.9417 44.3478L68.7075 44.3371Z" fill="#142251"/>
<path d="M72.8571 45.9594C72.871 46.3637 73.2098 46.6807 73.6148 46.6668C74.0192 46.653 74.3361 46.3135 74.3223 45.9091C74.3084 45.5048 73.969 45.1878 73.5646 45.2017C73.1596 45.2156 72.8433 45.555 72.8571 45.9594Z" fill="#142251"/>
<path d="M72.3452 44.2119L72.291 42.8206L74.3292 42.7709C74.5865 42.7647 74.8372 42.8702 75.039 43.0706L76.2476 44.2678L74.5228 44.0244L72.3452 44.2119Z" fill="#142251"/>
<path d="M70.4056 51.1316C70.0982 51.3123 69.8345 51.4172 69.5381 51.5199C69.2481 51.6172 68.9499 51.6868 68.6489 51.729C68.0476 51.8187 67.4253 51.7684 66.8585 51.5896C66.7412 51.5532 66.6763 51.4283 66.7133 51.311C66.7456 51.2075 66.8465 51.1448 66.9506 51.1568L66.9584 51.1579C67.4794 51.2176 67.9983 51.16 68.4802 50.9916C68.7218 50.9097 68.9549 50.8058 69.1756 50.6816C69.3899 50.5614 69.6205 50.4056 69.7717 50.27C69.9917 50.0701 70.3319 50.0865 70.5311 50.3065C70.731 50.5266 70.7146 50.8661 70.4946 51.066C70.468 51.0897 70.4349 51.1137 70.4056 51.1316Z" fill="#142251"/>
<path d="M72.065 50.2374C72.1935 50.3549 72.399 50.492 72.5864 50.5944C72.781 50.7005 72.9861 50.7874 73.1983 50.8525C73.6227 50.9865 74.0785 51.01 74.5283 50.9138L74.5361 50.9122C74.6487 50.8881 74.7594 50.96 74.7828 51.0726C74.8038 51.171 74.7517 51.2679 74.663 51.3062C74.1743 51.5211 73.6127 51.6075 73.0676 51.5486C72.7942 51.5221 72.5244 51.4669 72.2614 51.3852C71.9931 51.2986 71.756 51.209 71.4767 51.0477C71.2347 50.9106 71.1505 50.6026 71.2882 50.3605C71.426 50.1192 71.7334 50.0343 71.9754 50.1727C72.0067 50.1905 72.0388 50.2142 72.065 50.2374Z" fill="#142251"/>
<path d="M70.0293 53.2966C70.0293 53.2966 70.7808 53.5382 71.8343 53.2348L70.0293 53.2966Z" fill="#142251"/>
<path d="M111.921 70.4187C113.572 77.4199 117.871 93.0433 120.05 100.89C120.778 103.513 119.312 106.242 116.723 107.086C113.977 107.981 111.037 106.414 110.251 103.635L101.564 72.9649C100.803 69.9895 102.707 66.9879 105.724 66.4079C108.531 65.8677 111.265 67.6359 111.921 70.4187Z" fill="#E4E7F1"/>
<path d="M120.058 100.859L127.47 127.202L117.688 130.238L110.139 103.297C109.411 100.448 111.235 97.5737 114.123 97.0177C116.812 96.5012 119.429 98.1938 120.058 100.859Z" fill="#E4E7F1"/>
<path d="M98.4888 62.232L93.3517 62.4818L88.3462 62.5797L78.6044 67.4458L81.183 106.954L108.674 106.011L107.454 66.3526L98.4888 62.232Z" fill="#E4E7F1"/>
<path d="M94.8218 73.4328C94.8328 73.7551 94.5807 74.0258 94.2584 74.0368C93.9354 74.0479 93.6653 73.7951 93.6543 73.4728C93.6432 73.1504 93.8954 72.8804 94.2183 72.8693C94.5407 72.8583 94.8107 73.1104 94.8218 73.4328Z" fill="#E4E7F1"/>
<path d="M95.062 80.3485C95.0731 80.6715 94.8209 80.9416 94.4986 80.9526C94.1756 80.9637 93.9056 80.7115 93.8945 80.3886C93.8834 80.0662 94.1356 79.7962 94.4586 79.7851C94.7809 79.774 95.051 80.0262 95.062 80.3485Z" fill="#E4E7F1"/>
<path d="M95.2944 87.2631C95.3055 87.586 95.0533 87.8561 94.731 87.8672C94.408 87.8782 94.138 87.6261 94.1269 87.3031C94.1159 86.9808 94.368 86.7107 94.691 86.6996C95.0133 86.6886 95.2834 86.9407 95.2944 87.2631Z" fill="#E4E7F1"/>
<path d="M95.5327 94.1779C95.5438 94.5008 95.2916 94.7709 94.9693 94.782C94.6463 94.793 94.3763 94.5409 94.3652 94.2179C94.3541 93.8956 94.6063 93.6255 94.9293 93.6144C95.2516 93.6034 95.5217 93.8555 95.5327 94.1779Z" fill="#E4E7F1"/>
<path d="M95.7729 101.093C95.784 101.416 95.5319 101.686 95.2095 101.697C94.8866 101.709 94.6165 101.456 94.6054 101.133C94.5944 100.811 94.8465 100.541 95.1695 100.53C95.4918 100.519 95.7619 100.771 95.7729 101.093Z" fill="#E4E7F1"/>
<path d="M74.8612 71.6889C73.6931 78.7867 70.4746 94.6679 68.8385 102.645C68.2911 105.312 69.941 107.934 72.5813 108.599C75.382 109.304 78.2076 107.539 78.8031 104.713L85.3685 73.5199C85.9234 70.4994 83.8186 67.6352 80.7698 67.2632C77.9319 66.9165 75.3258 68.8678 74.8612 71.6889Z" fill="#E4E7F1"/>
<path d="M68.83 102.615L63.2388 129.404L73.2061 131.762L78.8926 104.368C79.4239 101.476 77.408 98.733 74.4882 98.3761C71.77 98.0449 69.2746 99.9128 68.83 102.615Z" fill="#E4E7F1"/>
<path d="M110.377 121.006L81.4156 121.999L81.1796 106.954L108.567 106.015L110.377 121.006Z" fill="#E4E7F1"/>
<path d="M100.6 60.9386L98.0254 61.0269L99.0161 63.1684L100.6 60.9386Z" fill="#E4E7F1"/>
<path d="M94.4509 68.6266C91.477 68.7285 88.9831 66.3999 88.8811 63.426L88.4883 51.9656L99.2585 51.5964L99.6514 63.0568C99.7533 66.0307 97.4247 68.5246 94.4509 68.6266Z" fill="#E4E7F1"/>
<path d="M95.5665 68.5879L92.1814 64.2063C91.717 63.477 91.096 62.8555 90.36 62.382L88.9848 61.4982C88.6935 61.3113 88.3165 61.306 88.0195 61.485L86.6903 62.2868C86.3837 62.4721 86.2215 62.8173 86.2796 63.1621L86.9807 67.3365C87.049 67.7481 87.5802 67.8975 87.8675 67.5864L90.73 64.4842C90.889 64.3112 91.1717 64.3237 91.3137 64.5098L95.5921 69.3341L95.5665 68.5879Z" fill="#E4E7F1"/>
<path d="M95.5706 68.59L100.411 61.1068C100.547 60.9001 100.553 60.8868 100.806 61.047L101.939 61.7637C102.201 61.9295 102.355 62.2639 102.329 62.6122L102.641 66.7993C102.611 67.215 102.187 67.397 101.933 67.1039L99.6652 64.1932C99.5247 64.0305 99.295 64.0612 99.1908 64.2551L95.5962 69.3362L95.5706 68.59Z" fill="#E4E7F1"/>
<path d="M102.52 37.1564C102.034 35.5732 100.945 33.3529 97.2723 31.7949C91.2058 29.2204 88.2637 35.2303 88.2637 35.2303C86.6487 35.1103 85.3312 35.722 84.6179 37.2961C83.9493 38.7709 84.7461 41.4738 84.9961 42.4158L86.5114 48.3942L87.4643 42.6258C88.4643 38.8189 90.1288 37.2252 90.1288 37.2252L95.5703 36.5947L101.731 47.3235L102.635 40.8189C102.75 39.9935 102.781 39.156 102.707 38.3261C102.664 37.8457 102.603 37.4293 102.52 37.1564Z" fill="#E4E7F1"/>
<path d="M100.681 46.0347C100.681 46.0347 101.37 44.8524 102.891 45.3706C104.411 45.8884 103.858 49.5579 101.621 50.0993C101.621 50.0993 100.82 50.3033 100.168 49.7726C100.168 49.7726 100.63 47.0598 100.681 46.0347Z" fill="#E4E7F1"/>
<path d="M86.6466 46.4753C86.6466 46.4753 85.7186 45.3705 84.3124 46.007C82.8498 46.6705 83.6357 50.2511 85.9034 50.6387C85.9034 50.6387 86.7168 50.7871 87.3309 50.2131C87.3309 50.2131 86.7684 47.4944 86.6466 46.4753Z" fill="#E4E7F1"/>
<path d="M84.6543 47.2839C84.6543 47.2839 85.8973 46.8204 86.8537 48.6429L84.6543 47.2839Z" fill="#E4E7F1"/>
<path d="M86.2076 47.7565C86.2076 47.7565 84.8635 48.5353 85.8061 49.6042L86.2076 47.7565Z" fill="#E4E7F1"/>
<path d="M101.96 42.5268C102.036 44.7245 101.978 49.3311 100.72 52.1071C99.5393 54.7129 97.4879 56.1646 94.7396 56.341C91.9919 56.5173 89.9057 55.5268 88.1494 52.257C86.3925 48.9878 86.2698 43.1058 86.2698 43.1058C86.2698 43.1058 86.0006 35.2534 93.7612 34.9874C101.935 34.7072 101.96 42.5268 101.96 42.5268Z" fill="#E4E7F1"/>
<path d="M96.7997 44.8546L96.9199 48.3605C96.9226 48.4386 96.9102 48.514 96.8852 48.584C96.787 48.8566 96.4814 48.9961 96.1989 48.9308L95.5904 48.7913" fill="#E4E7F1"/>
<path d="M93.4319 45.2533C93.4458 45.6577 93.1295 45.9971 92.7245 46.011C92.3201 46.0248 91.9807 45.7079 91.9668 45.3035C91.953 44.8991 92.2699 44.5597 92.6743 44.5458C93.0793 44.532 93.4181 44.8489 93.4319 45.2533Z" fill="#E4E7F1"/>
<path d="M94.1098 43.4653L94.0888 42.0722L91.5085 42.2069C91.1825 42.224 90.8727 42.3526 90.6298 42.5702L89.179 43.8749L91.3441 43.476L94.1098 43.4653Z" fill="#E4E7F1"/>
<path d="M98.2595 45.0878C98.2733 45.4922 98.6121 45.8091 99.0172 45.7952C99.4215 45.7814 99.7385 45.4419 99.7246 45.0376C99.7108 44.6332 99.3713 44.3163 98.9669 44.3301C98.5619 44.344 98.2456 44.6834 98.2595 45.0878Z" fill="#E4E7F1"/>
<path d="M97.7456 43.3405L97.6914 41.9492L99.7296 41.8996C99.9869 41.8933 100.238 41.9988 100.439 42.1992L101.648 43.3965L99.9232 43.1531L97.7456 43.3405Z" fill="#E4E7F1"/>
<path d="M95.8079 50.2603C95.5005 50.441 95.2368 50.5458 94.9405 50.6486C94.6504 50.7459 94.3523 50.8154 94.0512 50.8577C93.45 50.9474 92.8276 50.897 92.2608 50.7183C92.1435 50.6819 92.0786 50.557 92.1157 50.4397C92.148 50.3362 92.2488 50.2734 92.3529 50.2855L92.3608 50.2865C92.8817 50.3462 93.4007 50.2887 93.8825 50.1203C94.1242 50.0383 94.3573 49.9345 94.5779 49.8102C94.7922 49.6901 95.0229 49.5342 95.174 49.3986C95.394 49.1988 95.7343 49.2152 95.9335 49.4352C96.1333 49.6552 96.1169 49.9948 95.8969 50.1946C95.8704 50.2184 95.8373 50.2423 95.8079 50.2603Z" fill="#E4E7F1"/>
<path d="M97.4654 49.3663C97.5939 49.4838 97.7994 49.6209 97.9868 49.7233C98.1814 49.8294 98.3865 49.9163 98.5986 49.9814C99.0231 50.1155 99.4789 50.1389 99.9287 50.0427L99.9365 50.0411C100.049 50.017 100.16 50.0889 100.183 50.2015C100.204 50.2999 100.152 50.3968 100.063 50.4351C99.5747 50.65 99.0131 50.7364 98.468 50.6775C98.1946 50.6511 97.9248 50.5958 97.6618 50.5142C97.3935 50.4275 97.1564 50.3379 96.8771 50.1766C96.6351 50.0395 96.5508 49.7315 96.6886 49.4894C96.8263 49.2481 97.1338 49.1632 97.3758 49.3016C97.407 49.3194 97.4392 49.3431 97.4654 49.3663Z" fill="#E4E7F1"/>
<path d="M95.4297 52.4253C95.4297 52.4253 96.1812 52.6668 97.2347 52.3634L95.4297 52.4253Z" fill="#E4E7F1"/>
<rect x="25.7031" y="24.5586" width="86.1593" height="84.173" rx="6.5" stroke="#989EB1"/>
</g>
</svg>
